<svg xmlns="http://www.w3.org/2000/svg" preserveAspectRatio="none" viewBox="0 0 100 1"><rect fill="#2563EB" height="0.6218117385809132" width="1" x="0" y="0.3781882614190868"></rect><rect fill="#2563EB" height="0.7051943916118893" width="1" x="1" y="0.29480560838811065"></rect><rect fill="#2563EB" height="0.7306539826722419" width="1" x="2" y="0.2693460173277581"></rect><rect fill="#2563EB" height="0.9183594834624027" width="1" x="3" y="0.0816405165375973"></rect><rect fill="#2563EB" height="0.7061160825078856" width="1" x="4" y="0.2938839174921144"></rect><rect fill="#2563EB" height="0.5680449291597484" width="1" x="5" y="0.43195507084025164"></rect><rect fill="#2563EB" height="0.9700547782885413" width="1" x="6" y="0.029945221711458747"></rect><rect fill="#2563EB" height="0.7216806462599202" width="1" x="7" y="0.27831935374007977"></rect><rect fill="#2563EB" height="0.7048288117575292" width="1" x="8" y="0.2951711882424708"></rect><rect fill="#2563EB" height="0.9106846815428555" width="1" x="9" y="0.08931531845714447"></rect><rect fill="#2563EB" height="0.7027781166507805" width="1" x="10" y="0.2972218833492195"></rect><rect fill="#2563EB" height="0.6403621036411368" width="1" x="11" y="0.35963789635886323"></rect><rect fill="#2563EB" height="0.7977437719591667" width="1" x="12" y="0.20225622804083332"></rect><rect fill="#2563EB" height="0.8905928652288116" width="1" x="13" y="0.10940713477118835"></rect><rect fill="#2563EB" height="0.6780563028637648" width="1" x="14" y="0.32194369713623516"></rect><rect fill="#2563EB" height="0.7657744020701541" width="1" x="15" y="0.23422559792984587"></rect><rect fill="#2563EB" height="0.6953283123291721" width="1" x="16" y="0.30467168767082786"></rect><rect fill="#2563EB" height="0.6194905856000607" width="1" x="17" y="0.38050941439993935"></rect><rect fill="#2563EB" height="0.6654288048709651" width="1" x="18" y="0.3345711951290349"></rect><rect fill="#2563EB" height="0.7970122463085385" width="1" x="19" y="0.2029877536914615"></rect><rect fill="#2563EB" height="0.659523714185377" width="1" x="20" y="0.34047628581462297"></rect><rect fill="#2563EB" height="0.7598345242672908" width="1" x="21" y="0.2401654757327092"></rect><rect fill="#2563EB" height="0.9349961526199373" width="1" x="22" y="0.06500384738006271"></rect><rect fill="#2563EB" height="0.6926646470064122" width="1" x="23" y="0.30733535299358783"></rect><rect fill="#2563EB" height="0.5950781869279674" width="1" x="24" y="0.40492181307203257"></rect><rect fill="#2563EB" height="0.8935098103844311" width="1" x="25" y="0.10649018961556889"></rect><rect fill="#2563EB" height="0.7877593518167801" width="1" x="26" y="0.21224064818321986"></rect><rect fill="#2563EB" height="0.775458047704064" width="1" x="27" y="0.224541952295936"></rect><rect fill="#2563EB" height="0.8815858025841466" width="1" x="28" y="0.11841419741585335"></rect><rect fill="#2563EB" height="0.7323547808876223" width="1" x="29" y="0.2676452191123777"></rect><rect fill="#2563EB" height="0.6849619345079275" width="1" x="30" y="0.31503806549207247"></rect><rect fill="#2563EB" height="0.8362407513344536" width="1" x="31" y="0.16375924866554636"></rect><rect fill="#2563EB" height="0.7970902151407597" width="1" x="32" y="0.20290978485924027"></rect><rect fill="#2563EB" height="0.6781757019929876" width="1" x="33" y="0.3218242980070124"></rect><rect fill="#2563EB" height="0.8297947925915885" width="1" x="34" y="0.1702052074084115"></rect><rect fill="#2563EB" height="0.8016795876884928" width="1" x="35" y="0.1983204123115072"></rect><rect fill="#2563EB" height="0.8442033398970562" width="1" x="36" y="0.1557966601029438"></rect><rect fill="#2563EB" height="0.8650999800330538" width="1" x="37" y="0.13490001996694623"></rect><rect fill="#2563EB" height="0.9176828237121479" width="1" x="38" y="0.08231717628785207"></rect><rect fill="#2563EB" height="0.6910586734489423" width="1" x="39" y="0.30894132655105766"></rect><rect fill="#2563EB" height="0.8645310191684947" width="1" x="40" y="0.13546898083150527"></rect><rect fill="#2563EB" height="0.9438943457856954" width="1" x="41" y="0.05610565421430458"></rect><rect fill="#2563EB" height="0.728269183718226" width="1" x="42" y="0.271730816281774"></rect><rect fill="#2563EB" height="0.7449013108764926" width="1" x="43" y="0.2550986891235074"></rect><rect fill="#2563EB" height="0.9770646092032127" width="1" x="44" y="0.022935390796787303"></rect><rect fill="#2563EB" height="0.7929279453843037" width="1" x="45" y="0.20707205461569633"></rect><rect fill="#2563EB" height="0.7135520929492976" width="1" x="46" y="0.28644790705070244"></rect><rect fill="#2563EB" height="0.9662929384158412" width="1" x="47" y="0.033707061584158815"></rect><rect fill="#2563EB" height="0.7729315935886547" width="1" x="48" y="0.2270684064113453"></rect><rect fill="#2563EB" height="0.8159456891314176" width="1" x="49" y="0.18405431086858237"></rect><rect fill="#2563EB" height="0.7754987366004293" width="1" x="50" y="0.22450126339957066"></rect><rect fill="#2563EB" height="0.6093413088970826" width="1" x="51" y="0.3906586911029174"></rect><rect fill="#2563EB" height="0.4874716588691893" width="1" x="52" y="0.5125283411308107"></rect><rect fill="#2563EB" height="0.5392867843493403" width="1" x="53" y="0.4607132156506597"></rect><rect fill="#2563EB" height="0.5420585024978868" width="1" x="54" y="0.4579414975021132"></rect><rect fill="#2563EB" height="0.6238962055510896" width="1" x="55" y="0.3761037944489104"></rect><rect fill="#2563EB" height="0.6163049438186614" width="1" x="56" y="0.3836950561813386"></rect><rect fill="#2563EB" height="0.5337390816980849" width="1" x="57" y="0.4662609183019151"></rect><rect fill="#2563EB" height="0.6319402056966207" width="1" x="58" y="0.3680597943033793"></rect><rect fill="#2563EB" height="0.589554625395112" width="1" x="59" y="0.41044537460488795"></rect><rect fill="#2563EB" height="0.5145352607632565" width="1" x="60" y="0.4854647392367435"></rect><rect fill="#2563EB" height="0.5468028777153773" width="1" x="61" y="0.4531971222846227"></rect><rect fill="#2563EB" height="0.5922119602024598" width="1" x="62" y="0.4077880397975402"></rect><rect fill="#2563EB" height="0.6002994824570528" width="1" x="63" y="0.3997005175429472"></rect><rect fill="#2563EB" height="0.5749862518281853" width="1" x="64" y="0.4250137481718147"></rect><rect fill="#2563EB" height="0.6130942405500731" width="1" x="65" y="0.3869057594499269"></rect><rect fill="#2563EB" height="0.6116250951407992" width="1" x="66" y="0.3883749048592008"></rect><rect fill="#2563EB" height="0.5623012210570301" width="1" x="67" y="0.43769877894296993"></rect><rect fill="#2563EB" height="0.6579050796968814" width="1" x="68" y="0.3420949203031186"></rect><rect fill="#2563EB" height="0.6079517409151594" width="1" x="69" y="0.39204825908484064"></rect><rect fill="#2563EB" height="0.9123164484594501" width="1" x="70" y="0.08768355154054985"></rect><rect fill="#2563EB" height="0.752929134282866" width="1" x="71" y="0.247070865717134"></rect><rect fill="#2563EB" height="0.9655096565984344" width="1" x="72" y="0.03449034340156565"></rect><rect fill="#2563EB" height="0.7945161032192396" width="1" x="73" y="0.2054838967807604"></rect><rect fill="#2563EB" height="0.7071778842623495" width="1" x="74" y="0.2928221157376505"></rect><rect fill="#2563EB" height="0.8912294840181351" width="1" x="75" y="0.10877051598186493"></rect><rect fill="#2563EB" height="0.9074724050070798" width="1" x="76" y="0.09252759499292018"></rect><rect fill="#2563EB" height="0.7973350640965378" width="1" x="77" y="0.20266493590346224"></rect><rect fill="#2563EB" height="0.8982172259779088" width="1" x="78" y="0.10178277402209124"></rect><rect fill="#2563EB" height="0.9812999779983421" width="1" x="79" y="0.01870002200165788"></rect><rect fill="#2563EB" height="0.7826239930353279" width="1" x="80" y="0.21737600696467207"></rect><rect fill="#2563EB" height="0.7987179229906052" width="1" x="81" y="0.20128207700939482"></rect><rect fill="#2563EB" height="1" width="1" x="82" y="0"></rect><rect fill="#2563EB" height="0.8021326057324396" width="1" x="83" y="0.1978673942675604"></rect><rect fill="#2563EB" height="0.7803058563771461" width="1" x="84" y="0.2196941436228539"></rect><rect fill="#2563EB" height="0.9930085685400779" width="1" x="85" y="0.006991431459922093"></rect><rect fill="#2563EB" height="0.8034182996749565" width="1" x="86" y="0.19658170032504352"></rect><rect fill="#2563EB" height="0.7949580664253366" width="1" x="87" y="0.20504193357466338"></rect><rect fill="#2563EB" height="0.965482248919218" width="1" x="88" y="0.03451775108078203"></rect><rect fill="#2563EB" height="0.868845103086348" width="1" x="89" y="0.131154896913652"></rect><rect fill="#2563EB" height="0.8252203083269394" width="1" x="90" y="0.17477969167306062"></rect><rect fill="#2563EB" height="0.9427945809303919" width="1" x="91" y="0.05720541906960808"></rect><rect fill="#2563EB" height="0.875929181831334" width="1" x="92" y="0.12407081816866605"></rect><rect fill="#2563EB" height="0.8604615444837928" width="1" x="93" y="0.13953845551620725"></rect><rect fill="#2563EB" height="0.912374632970586" width="1" x="94" y="0.08762536702941404"></rect><rect fill="#2563EB" height="0.0945699254718849" width="1" x="95" y="0.9054300745281151"></rect><rect fill="#2563EB" height="0.007224153266807407" width="1" x="96" y="0.9927758467331926"></rect><rect fill="#2563EB" height="0.002473635788353867" width="1" x="97" y="0.9975263642116461"></rect><rect fill="#2563EB" height="0.0008052763672732974" width="1" x="98" y="0.9991947236327267"></rect><rect fill="#2563EB" height="NaN" width="1" x="99" y="NaN"></rect></svg>