<svg xmlns="http://www.w3.org/2000/svg" preserveAspectRatio="none" viewBox="0 0 100 1"><rect fill="#2563EB" height="0.2344923513787411" width="1" x="0" y="0.7655076486212589"></rect><rect fill="#2563EB" height="0.4209791458975898" width="1" x="1" y="0.5790208541024102"></rect><rect fill="#2563EB" height="0.5004069385127677" width="1" x="2" y="0.49959306148723226"></rect><rect fill="#2563EB" height="0.3756133233447492" width="1" x="3" y="0.6243866766552508"></rect><rect fill="#2563EB" height="0.43025071661146097" width="1" x="4" y="0.569749283388539"></rect><rect fill="#2563EB" height="0.4467001724284955" width="1" x="5" y="0.5532998275715044"></rect><rect fill="#2563EB" height="0.455211003461534" width="1" x="6" y="0.544788996538466"></rect><rect fill="#2563EB" height="0.6523300851532274" width="1" x="7" y="0.34766991484677257"></rect><rect fill="#2563EB" height="0.6957345249596076" width="1" x="8" y="0.30426547504039236"></rect><rect fill="#2563EB" height="0.5792966459000977" width="1" x="9" y="0.42070335409990234"></rect><rect fill="#2563EB" height="0.5501597082397177" width="1" x="10" y="0.4498402917602823"></rect><rect fill="#2563EB" height="0.6607141632192096" width="1" x="11" y="0.3392858367807904"></rect><rect fill="#2563EB" height="0.6514032577296546" width="1" x="12" y="0.3485967422703454"></rect><rect fill="#2563EB" height="0.6164979023842903" width="1" x="13" y="0.38350209761570975"></rect><rect fill="#2563EB" height="0.6808438101332775" width="1" x="14" y="0.31915618986672245"></rect><rect fill="#2563EB" height="0.6522369515017387" width="1" x="15" y="0.34776304849826134"></rect><rect fill="#2563EB" height="0.5904019648609179" width="1" x="16" y="0.4095980351390821"></rect><rect fill="#2563EB" height="0.6329479274910879" width="1" x="17" y="0.36705207250891214"></rect><rect fill="#2563EB" height="0.691152389970529" width="1" x="18" y="0.30884761002947103"></rect><rect fill="#2563EB" height="0.6173966062748754" width="1" x="19" y="0.38260339372512464"></rect><rect fill="#2563EB" height="0.5413244466820649" width="1" x="20" y="0.4586755533179351"></rect><rect fill="#2563EB" height="0.7606784300048849" width="1" x="21" y="0.2393215699951151"></rect><rect fill="#2563EB" height="0.7422841840940938" width="1" x="22" y="0.2577158159059062"></rect><rect fill="#2563EB" height="0.5635478907471486" width="1" x="23" y="0.4364521092528514"></rect><rect fill="#2563EB" height="0.7130459311611995" width="1" x="24" y="0.2869540688388005"></rect><rect fill="#2563EB" height="0.7733000446204865" width="1" x="25" y="0.22669995537951348"></rect><rect fill="#2563EB" height="0.6296915157753925" width="1" x="26" y="0.3703084842246075"></rect><rect fill="#2563EB" height="0.7726863785586053" width="1" x="27" y="0.22731362144139466"></rect><rect fill="#2563EB" height="0.6744934211136601" width="1" x="28" y="0.32550657888633994"></rect><rect fill="#2563EB" height="0.6867975588320713" width="1" x="29" y="0.3132024411679287"></rect><rect fill="#2563EB" height="0.6172628344158946" width="1" x="30" y="0.3827371655841054"></rect><rect fill="#2563EB" height="0.6935967345535493" width="1" x="31" y="0.3064032654464507"></rect><rect fill="#2563EB" height="0.6519452023116081" width="1" x="32" y="0.34805479768839187"></rect><rect fill="#2563EB" height="0.5715386226347517" width="1" x="33" y="0.42846137736524825"></rect><rect fill="#2563EB" height="0.6862725158421284" width="1" x="34" y="0.31372748415787155"></rect><rect fill="#2563EB" height="0.6702673679498917" width="1" x="35" y="0.3297326320501083"></rect><rect fill="#2563EB" height="0.6387844563897146" width="1" x="36" y="0.3612155436102854"></rect><rect fill="#2563EB" height="0.593513927437137" width="1" x="37" y="0.40648607256286295"></rect><rect fill="#2563EB" height="0.6657321055540093" width="1" x="38" y="0.3342678944459907"></rect><rect fill="#2563EB" height="0.6636171555785363" width="1" x="39" y="0.3363828444214637"></rect><rect fill="#2563EB" height="0.5761169890596876" width="1" x="40" y="0.42388301094031244"></rect><rect fill="#2563EB" height="0.7472335544370657" width="1" x="41" y="0.25276644556293426"></rect><rect fill="#2563EB" height="0.7906298742721086" width="1" x="42" y="0.20937012572789138"></rect><rect fill="#2563EB" height="0.6795598748806979" width="1" x="43" y="0.3204401251193021"></rect><rect fill="#2563EB" height="0.6509888537343126" width="1" x="44" y="0.3490111462656874"></rect><rect fill="#2563EB" height="0.7918496315936607" width="1" x="45" y="0.20815036840633927"></rect><rect fill="#2563EB" height="0.7176602631054716" width="1" x="46" y="0.2823397368945284"></rect><rect fill="#2563EB" height="0.8308749062386213" width="1" x="47" y="0.16912509376137874"></rect><rect fill="#2563EB" height="0.5622089965975863" width="1" x="48" y="0.4377910034024137"></rect><rect fill="#2563EB" height="0.7534624842121219" width="1" x="49" y="0.24653751578787808"></rect><rect fill="#2563EB" height="0.7405135962382567" width="1" x="50" y="0.25948640376174326"></rect><rect fill="#2563EB" height="0.6993880736215379" width="1" x="51" y="0.3006119263784621"></rect><rect fill="#2563EB" height="0.6368787282447033" width="1" x="52" y="0.36312127175529674"></rect><rect fill="#2563EB" height="0.6669110551113366" width="1" x="53" y="0.33308894488866336"></rect><rect fill="#2563EB" height="0.6763360125250825" width="1" x="54" y="0.32366398747491754"></rect><rect fill="#2563EB" height="0.733042473242087" width="1" x="55" y="0.26695752675791296"></rect><rect fill="#2563EB" height="1" width="1" x="56" y="0"></rect><rect fill="#2563EB" height="0.9658157405493694" width="1" x="57" y="0.03418425945063064"></rect><rect fill="#2563EB" height="0.8940935472160465" width="1" x="58" y="0.1059064527839535"></rect><rect fill="#2563EB" height="0.8441030510961234" width="1" x="59" y="0.15589694890387662"></rect><rect fill="#2563EB" height="0.9421680338071693" width="1" x="60" y="0.05783196619283071"></rect><rect fill="#2563EB" height="0.8861666246825791" width="1" x="61" y="0.11383337531742088"></rect><rect fill="#2563EB" height="0.8502900369945474" width="1" x="62" y="0.14970996300545258"></rect><rect fill="#2563EB" height="0.8461373849741336" width="1" x="63" y="0.1538626150258664"></rect><rect fill="#2563EB" height="0.6813979756451445" width="1" x="64" y="0.3186020243548555"></rect><rect fill="#2563EB" height="0.5660845994057194" width="1" x="65" y="0.4339154005942806"></rect><rect fill="#2563EB" height="0.6265827513666574" width="1" x="66" y="0.3734172486333426"></rect><rect fill="#2563EB" height="0.6763618911924075" width="1" x="67" y="0.3236381088075925"></rect><rect fill="#2563EB" height="0.653662188886619" width="1" x="68" y="0.346337811113381"></rect><rect fill="#2563EB" height="0.6077287549146041" width="1" x="69" y="0.3922712450853959"></rect><rect fill="#2563EB" height="0.6448010433328333" width="1" x="70" y="0.3551989566671667"></rect><rect fill="#2563EB" height="0.6533841466831262" width="1" x="71" y="0.34661585331687383"></rect><rect fill="#2563EB" height="0.5503571935609737" width="1" x="72" y="0.4496428064390263"></rect><rect fill="#2563EB" height="0.6742572722052274" width="1" x="73" y="0.32574272779477265"></rect><rect fill="#2563EB" height="0.6765636900161733" width="1" x="74" y="0.32343630998382666"></rect><rect fill="#2563EB" height="0.5813057001151316" width="1" x="75" y="0.4186942998848684"></rect><rect fill="#2563EB" height="0.5429147060331881" width="1" x="76" y="0.45708529396681186"></rect><rect fill="#2563EB" height="0.767269809807634" width="1" x="77" y="0.23273019019236596"></rect><rect fill="#2563EB" height="0.7976649984274305" width="1" x="78" y="0.20233500157256945"></rect><rect fill="#2563EB" height="0.6647862929961649" width="1" x="79" y="0.3352137070038351"></rect><rect fill="#2563EB" height="0.6947826256613452" width="1" x="80" y="0.3052173743386548"></rect><rect fill="#2563EB" height="0.8099194333164564" width="1" x="81" y="0.19008056668354356"></rect><rect fill="#2563EB" height="0.6928506709603807" width="1" x="82" y="0.30714932903961933"></rect><rect fill="#2563EB" height="0.7145933761915294" width="1" x="83" y="0.2854066238084706"></rect><rect fill="#2563EB" height="0.332999813057188" width="1" x="84" y="0.6670001869428119"></rect><rect fill="#2563EB" height="0.37301749856040434" width="1" x="85" y="0.6269825014395957"></rect><rect fill="#2563EB" height="0.37675892835984126" width="1" x="86" y="0.6232410716401587"></rect><rect fill="#2563EB" height="0.44154949042145186" width="1" x="87" y="0.5584505095785481"></rect><rect fill="#2563EB" height="0.37316112658747064" width="1" x="88" y="0.6268388734125294"></rect><rect fill="#2563EB" height="0.3859409870316346" width="1" x="89" y="0.6140590129683654"></rect><rect fill="#2563EB" height="0.41266926594877085" width="1" x="90" y="0.5873307340512292"></rect><rect fill="#2563EB" height="0.35316089228019015" width="1" x="91" y="0.6468391077198099"></rect><rect fill="#2563EB" height="0.40331335815896896" width="1" x="92" y="0.596686641841031"></rect><rect fill="#2563EB" height="0.3883904676086037" width="1" x="93" y="0.6116095323913964"></rect><rect fill="#2563EB" height="0.3711323821489135" width="1" x="94" y="0.6288676178510866"></rect><rect fill="#2563EB" height="0.4185943157923096" width="1" x="95" y="0.5814056842076905"></rect><rect fill="#2563EB" height="0.41200377606659194" width="1" x="96" y="0.587996223933408"></rect><rect fill="#2563EB" height="0.23851472234092838" width="1" x="97" y="0.7614852776590716"></rect><rect fill="#2563EB" height="0.0636637719053606" width="1" x="98" y="0.9363362280946395"></rect><rect fill="#2563EB" height="0.010965272003344248" width="1" x="99" y="0.9890347279966557"></rect></svg>