<svg xmlns="http://www.w3.org/2000/svg" preserveAspectRatio="none" viewBox="0 0 100 1"><rect fill="#2563EB" height="0.12599500262099272" width="1" x="0" y="0.8740049973790073"></rect><rect fill="#2563EB" height="0.5579161885092129" width="1" x="1" y="0.4420838114907871"></rect><rect fill="#2563EB" height="0.6098878111737034" width="1" x="2" y="0.3901121888262966"></rect><rect fill="#2563EB" height="0.5242984382589432" width="1" x="3" y="0.4757015617410568"></rect><rect fill="#2563EB" height="0.2866456149413145" width="1" x="4" y="0.7133543850586854"></rect><rect fill="#2563EB" height="0.45980353206816926" width="1" x="5" y="0.5401964679318307"></rect><rect fill="#2563EB" height="0.5569462486750204" width="1" x="6" y="0.4430537513249796"></rect><rect fill="#2563EB" height="0.737077931776224" width="1" x="7" y="0.26292206822377595"></rect><rect fill="#2563EB" height="0.5975545267726181" width="1" x="8" y="0.4024454732273819"></rect><rect fill="#2563EB" height="0.6737197203222122" width="1" x="9" y="0.32628027967778783"></rect><rect fill="#2563EB" height="0.6148460890026668" width="1" x="10" y="0.3851539109973332"></rect><rect fill="#2563EB" height="0.7796811777807582" width="1" x="11" y="0.22031882221924182"></rect><rect fill="#2563EB" height="0.400891220527863" width="1" x="12" y="0.599108779472137"></rect><rect fill="#2563EB" height="0.7494173930219263" width="1" x="13" y="0.25058260697807366"></rect><rect fill="#2563EB" height="0.5570532161826763" width="1" x="14" y="0.44294678381732366"></rect><rect fill="#2563EB" height="0.663546607572865" width="1" x="15" y="0.336453392427135"></rect><rect fill="#2563EB" height="0.6187089404390583" width="1" x="16" y="0.38129105956094167"></rect><rect fill="#2563EB" height="0.7474362882598925" width="1" x="17" y="0.2525637117401075"></rect><rect fill="#2563EB" height="0.41342292703607486" width="1" x="18" y="0.5865770729639251"></rect><rect fill="#2563EB" height="0.6411197958907724" width="1" x="19" y="0.3588802041092276"></rect><rect fill="#2563EB" height="0.7101665420916583" width="1" x="20" y="0.2898334579083417"></rect><rect fill="#2563EB" height="0.69056303933136" width="1" x="21" y="0.30943696066864"></rect><rect fill="#2563EB" height="0.4217631331618831" width="1" x="22" y="0.5782368668381169"></rect><rect fill="#2563EB" height="0.890227895829388" width="1" x="23" y="0.109772104170612"></rect><rect fill="#2563EB" height="1" width="1" x="24" y="0"></rect><rect fill="#2563EB" height="0.8637616747294085" width="1" x="25" y="0.13623832527059154"></rect><rect fill="#2563EB" height="0.8364101940681702" width="1" x="26" y="0.1635898059318298"></rect><rect fill="#2563EB" height="0.6044125718209712" width="1" x="27" y="0.3955874281790288"></rect><rect fill="#2563EB" height="0.9987968594010691" width="1" x="28" y="0.0012031405989308963"></rect><rect fill="#2563EB" height="0.7248175624034614" width="1" x="29" y="0.2751824375965386"></rect><rect fill="#2563EB" height="0.4700395031462826" width="1" x="30" y="0.5299604968537174"></rect><rect fill="#2563EB" height="0.4803899725978487" width="1" x="31" y="0.5196100274021513"></rect><rect fill="#2563EB" height="0.8118540664186358" width="1" x="32" y="0.18814593358136422"></rect><rect fill="#2563EB" height="0.756799483582016" width="1" x="33" y="0.24320051641798401"></rect><rect fill="#2563EB" height="0.6927351043824459" width="1" x="34" y="0.3072648956175541"></rect><rect fill="#2563EB" height="0.7222448332941751" width="1" x="35" y="0.2777551667058249"></rect><rect fill="#2563EB" height="0.5340321020690847" width="1" x="36" y="0.4659678979309153"></rect><rect fill="#2563EB" height="0.6109881181757147" width="1" x="37" y="0.38901188182428525"></rect><rect fill="#2563EB" height="0.74851325003935" width="1" x="38" y="0.25148674996065"></rect><rect fill="#2563EB" height="0.6792574568596143" width="1" x="39" y="0.32074254314038575"></rect><rect fill="#2563EB" height="0.7367848924971125" width="1" x="40" y="0.26321510750288746"></rect><rect fill="#2563EB" height="0.4709321149668374" width="1" x="41" y="0.5290678850331626"></rect><rect fill="#2563EB" height="0.5749764236895148" width="1" x="42" y="0.42502357631048515"></rect><rect fill="#2563EB" height="0.4244781980903062" width="1" x="43" y="0.5755218019096938"></rect><rect fill="#2563EB" height="0.5826155082304788" width="1" x="44" y="0.4173844917695212"></rect><rect fill="#2563EB" height="0.6251088686466673" width="1" x="45" y="0.37489113135333274"></rect><rect fill="#2563EB" height="0.727336034052019" width="1" x="46" y="0.27266396594798104"></rect><rect fill="#2563EB" height="0.6089529236401864" width="1" x="47" y="0.3910470763598136"></rect><rect fill="#2563EB" height="0.88981846812812" width="1" x="48" y="0.11018153187187996"></rect><rect fill="#2563EB" height="0.7269630752927594" width="1" x="49" y="0.2730369247072406"></rect><rect fill="#2563EB" height="0.8539669014267625" width="1" x="50" y="0.14603309857323754"></rect><rect fill="#2563EB" height="0.8419079342288384" width="1" x="51" y="0.15809206577116164"></rect><rect fill="#2563EB" height="0.5163836323821321" width="1" x="52" y="0.48361636761786786"></rect><rect fill="#2563EB" height="0.7453515303205247" width="1" x="53" y="0.2546484696794753"></rect><rect fill="#2563EB" height="0.6652847571041629" width="1" x="54" y="0.3347152428958371"></rect><rect fill="#2563EB" height="0.6359679528459551" width="1" x="55" y="0.3640320471540449"></rect><rect fill="#2563EB" height="0.8382240275270402" width="1" x="56" y="0.16177597247295983"></rect><rect fill="#2563EB" height="0.7021935679591086" width="1" x="57" y="0.2978064320408914"></rect><rect fill="#2563EB" height="0.6774540115731379" width="1" x="58" y="0.3225459884268621"></rect><rect fill="#2563EB" height="0.48480823449941024" width="1" x="59" y="0.5151917655005898"></rect><rect fill="#2563EB" height="0.42088382054801915" width="1" x="60" y="0.5791161794519808"></rect><rect fill="#2563EB" height="0.550174960942893" width="1" x="61" y="0.449825039057107"></rect><rect fill="#2563EB" height="0.4753776328186766" width="1" x="62" y="0.5246223671813234"></rect><rect fill="#2563EB" height="0.2830407848326643" width="1" x="63" y="0.7169592151673356"></rect><rect fill="#2563EB" height="0.43054720547039077" width="1" x="64" y="0.5694527945296093"></rect><rect fill="#2563EB" height="0.4408323838413546" width="1" x="65" y="0.5591676161586454"></rect><rect fill="#2563EB" height="0.5918766806143921" width="1" x="66" y="0.40812331938560786"></rect><rect fill="#2563EB" height="0.5843090854159675" width="1" x="67" y="0.4156909145840325"></rect><rect fill="#2563EB" height="0.5088401289562258" width="1" x="68" y="0.49115987104377423"></rect><rect fill="#2563EB" height="0.4710729957221604" width="1" x="69" y="0.5289270042778396"></rect><rect fill="#2563EB" height="0.8315325818430053" width="1" x="70" y="0.16846741815699473"></rect><rect fill="#2563EB" height="0.6619766753843311" width="1" x="71" y="0.33802332461566886"></rect><rect fill="#2563EB" height="0.46715244898381836" width="1" x="72" y="0.5328475510161816"></rect><rect fill="#2563EB" height="0.3927902685284167" width="1" x="73" y="0.6072097314715833"></rect><rect fill="#2563EB" height="0.561265532962738" width="1" x="74" y="0.43873446703726204"></rect><rect fill="#2563EB" height="0.44584497304233267" width="1" x="75" y="0.5541550269576674"></rect><rect fill="#2563EB" height="0.6714758358055892" width="1" x="76" y="0.3285241641944108"></rect><rect fill="#2563EB" height="0.5249306422797747" width="1" x="77" y="0.4750693577202253"></rect><rect fill="#2563EB" height="0.8400292809101354" width="1" x="78" y="0.1599707190898646"></rect><rect fill="#2563EB" height="0.743594102308258" width="1" x="79" y="0.25640589769174205"></rect><rect fill="#2563EB" height="0.5422557899160034" width="1" x="80" y="0.45774421008399657"></rect><rect fill="#2563EB" height="0.6561551204410737" width="1" x="81" y="0.3438448795589263"></rect><rect fill="#2563EB" height="0.5344832009076892" width="1" x="82" y="0.4655167990923108"></rect><rect fill="#2563EB" height="0.3511001795417467" width="1" x="83" y="0.6488998204582532"></rect><rect fill="#2563EB" height="0.6559282002560421" width="1" x="84" y="0.34407179974395785"></rect><rect fill="#2563EB" height="0.48797198023839367" width="1" x="85" y="0.5120280197616063"></rect><rect fill="#2563EB" height="0.9224717601153354" width="1" x="86" y="0.07752823988466462"></rect><rect fill="#2563EB" height="0.7270601409595162" width="1" x="87" y="0.2729398590404838"></rect><rect fill="#2563EB" height="0.5234604354721569" width="1" x="88" y="0.4765395645278431"></rect><rect fill="#2563EB" height="0.8672099884754809" width="1" x="89" y="0.13279001152451908"></rect><rect fill="#2563EB" height="0.7623712713409883" width="1" x="90" y="0.23762872865901175"></rect><rect fill="#2563EB" height="0.41033927258219977" width="1" x="91" y="0.5896607274178003"></rect><rect fill="#2563EB" height="0.4759662337524828" width="1" x="92" y="0.5240337662475172"></rect><rect fill="#2563EB" height="0.37384952799394505" width="1" x="93" y="0.6261504720060549"></rect><rect fill="#2563EB" height="0.2873063437503458" width="1" x="94" y="0.7126936562496542"></rect><rect fill="#2563EB" height="0.5298235457082918" width="1" x="95" y="0.4701764542917082"></rect><rect fill="#2563EB" height="0.18999800045307333" width="1" x="96" y="0.8100019995469266"></rect><rect fill="#2563EB" height="0.07251234844370116" width="1" x="97" y="0.9274876515562989"></rect><rect fill="#2563EB" height="0.007489231513152844" width="1" x="98" y="0.9925107684868472"></rect><rect fill="#2563EB" height="0.0010339731780787793" width="1" x="99" y="0.9989660268219213"></rect></svg>