<svg xmlns="http://www.w3.org/2000/svg" preserveAspectRatio="none" viewBox="0 0 100 1"><rect fill="#2563EB" height="0.09862156064710124" width="1" x="0" y="0.9013784393528987"></rect><rect fill="#2563EB" height="0.14055047989848915" width="1" x="1" y="0.8594495201015109"></rect><rect fill="#2563EB" height="0.13452822435290757" width="1" x="2" y="0.8654717756470924"></rect><rect fill="#2563EB" height="0.1431754548281807" width="1" x="3" y="0.8568245451718193"></rect><rect fill="#2563EB" height="0.15095380435770495" width="1" x="4" y="0.849046195642295"></rect><rect fill="#2563EB" height="0.15364853127449365" width="1" x="5" y="0.8463514687255064"></rect><rect fill="#2563EB" height="0.15571517814489622" width="1" x="6" y="0.8442848218551038"></rect><rect fill="#2563EB" height="0.1501511219306006" width="1" x="7" y="0.8498488780693993"></rect><rect fill="#2563EB" height="0.32195853843565075" width="1" x="8" y="0.6780414615643493"></rect><rect fill="#2563EB" height="0.3823088604618465" width="1" x="9" y="0.6176911395381535"></rect><rect fill="#2563EB" height="0.33166155436715744" width="1" x="10" y="0.6683384456328425"></rect><rect fill="#2563EB" height="0.34698016922979025" width="1" x="11" y="0.6530198307702098"></rect><rect fill="#2563EB" height="0.2768558277839033" width="1" x="12" y="0.7231441722160967"></rect><rect fill="#2563EB" height="0.3623890830615798" width="1" x="13" y="0.6376109169384202"></rect><rect fill="#2563EB" height="0.32552253764998973" width="1" x="14" y="0.6744774623500103"></rect><rect fill="#2563EB" height="0.4419516564383224" width="1" x="15" y="0.5580483435616777"></rect><rect fill="#2563EB" height="0.5746599776015956" width="1" x="16" y="0.4253400223984044"></rect><rect fill="#2563EB" height="0.5770019278665829" width="1" x="17" y="0.4229980721334171"></rect><rect fill="#2563EB" height="0.5227011197796169" width="1" x="18" y="0.47729888022038314"></rect><rect fill="#2563EB" height="0.5573498668813341" width="1" x="19" y="0.44265013311866586"></rect><rect fill="#2563EB" height="0.7580473379680654" width="1" x="20" y="0.24195266203193455"></rect><rect fill="#2563EB" height="0.7298921821914313" width="1" x="21" y="0.27010781780856874"></rect><rect fill="#2563EB" height="0.6659232135040059" width="1" x="22" y="0.33407678649599415"></rect><rect fill="#2563EB" height="1" width="1" x="23" y="0"></rect><rect fill="#2563EB" height="0.7069052844523009" width="1" x="24" y="0.29309471554769906"></rect><rect fill="#2563EB" height="0.6893500014766938" width="1" x="25" y="0.3106499985233062"></rect><rect fill="#2563EB" height="0.5699462376397755" width="1" x="26" y="0.4300537623602245"></rect><rect fill="#2563EB" height="0.5879170829961125" width="1" x="27" y="0.41208291700388755"></rect><rect fill="#2563EB" height="0.8935167326611172" width="1" x="28" y="0.1064832673388828"></rect><rect fill="#2563EB" height="0.625981357793966" width="1" x="29" y="0.374018642206034"></rect><rect fill="#2563EB" height="0.7064987467766655" width="1" x="30" y="0.29350125322333454"></rect><rect fill="#2563EB" height="0.9573401065023375" width="1" x="31" y="0.04265989349766253"></rect><rect fill="#2563EB" height="0.5359838987163713" width="1" x="32" y="0.4640161012836287"></rect><rect fill="#2563EB" height="0.8353983862469538" width="1" x="33" y="0.16460161375304616"></rect><rect fill="#2563EB" height="0.5725270896971593" width="1" x="34" y="0.42747291030284074"></rect><rect fill="#2563EB" height="0.5695902379459169" width="1" x="35" y="0.4304097620540831"></rect><rect fill="#2563EB" height="0.547254167219111" width="1" x="36" y="0.452745832780889"></rect><rect fill="#2563EB" height="0.5994458597496772" width="1" x="37" y="0.40055414025032277"></rect><rect fill="#2563EB" height="0.7479599269355258" width="1" x="38" y="0.2520400730644742"></rect><rect fill="#2563EB" height="0.8981489305058471" width="1" x="39" y="0.1018510694941529"></rect><rect fill="#2563EB" height="0.5865671040293875" width="1" x="40" y="0.4134328959706125"></rect><rect fill="#2563EB" height="0.8183409819621006" width="1" x="41" y="0.1816590180378994"></rect><rect fill="#2563EB" height="0.5622988989998978" width="1" x="42" y="0.4377011010001022"></rect><rect fill="#2563EB" height="0.510017385299204" width="1" x="43" y="0.48998261470079596"></rect><rect fill="#2563EB" height="0.5039436473062118" width="1" x="44" y="0.4960563526937882"></rect><rect fill="#2563EB" height="0.6114586881333187" width="1" x="45" y="0.3885413118666813"></rect><rect fill="#2563EB" height="0.703422921603849" width="1" x="46" y="0.296577078396151"></rect><rect fill="#2563EB" height="0.8503973787407488" width="1" x="47" y="0.14960262125925117"></rect><rect fill="#2563EB" height="0.4027078960876637" width="1" x="48" y="0.5972921039123362"></rect><rect fill="#2563EB" height="0.3548441395091075" width="1" x="49" y="0.6451558604908925"></rect><rect fill="#2563EB" height="0.36145657027948613" width="1" x="50" y="0.6385434297205139"></rect><rect fill="#2563EB" height="0.634227779987748" width="1" x="51" y="0.36577222001225196"></rect><rect fill="#2563EB" height="0.47795577184232657" width="1" x="52" y="0.5220442281576734"></rect><rect fill="#2563EB" height="0.44993390863607796" width="1" x="53" y="0.550066091363922"></rect><rect fill="#2563EB" height="0.38985132948797097" width="1" x="54" y="0.610148670512029"></rect><rect fill="#2563EB" height="0.6044066022196791" width="1" x="55" y="0.3955933977803209"></rect><rect fill="#2563EB" height="0.6648913243081143" width="1" x="56" y="0.33510867569188574"></rect><rect fill="#2563EB" height="0.6102534537063646" width="1" x="57" y="0.38974654629363537"></rect><rect fill="#2563EB" height="0.6380987757298653" width="1" x="58" y="0.3619012242701347"></rect><rect fill="#2563EB" height="0.7068705991292595" width="1" x="59" y="0.29312940087074046"></rect><rect fill="#2563EB" height="0.6491441789660369" width="1" x="60" y="0.35085582103396307"></rect><rect fill="#2563EB" height="0.6686366139807116" width="1" x="61" y="0.3313633860192884"></rect><rect fill="#2563EB" height="0.7306095589513227" width="1" x="62" y="0.26939044104867726"></rect><rect fill="#2563EB" height="0.939791050300613" width="1" x="63" y="0.06020894969938695"></rect><rect fill="#2563EB" height="0.6141251271078083" width="1" x="64" y="0.3858748728921917"></rect><rect fill="#2563EB" height="0.5406240254833798" width="1" x="65" y="0.45937597451662016"></rect><rect fill="#2563EB" height="0.6625340309700906" width="1" x="66" y="0.33746596902990944"></rect><rect fill="#2563EB" height="0.6716903127020626" width="1" x="67" y="0.3283096872979374"></rect><rect fill="#2563EB" height="0.601033979908873" width="1" x="68" y="0.398966020091127"></rect><rect fill="#2563EB" height="0.6882078008275507" width="1" x="69" y="0.31179219917244927"></rect><rect fill="#2563EB" height="0.7965758441439357" width="1" x="70" y="0.20342415585606433"></rect><rect fill="#2563EB" height="0.8919758415528055" width="1" x="71" y="0.10802415844719448"></rect><rect fill="#2563EB" height="0.6864903065192075" width="1" x="72" y="0.3135096934807925"></rect><rect fill="#2563EB" height="0.6977407764925765" width="1" x="73" y="0.3022592235074235"></rect><rect fill="#2563EB" height="0.5687277736417431" width="1" x="74" y="0.4312722263582569"></rect><rect fill="#2563EB" height="0.5585464496613516" width="1" x="75" y="0.4414535503386484"></rect><rect fill="#2563EB" height="0.688790460935383" width="1" x="76" y="0.311209539064617"></rect><rect fill="#2563EB" height="0.791019563901933" width="1" x="77" y="0.20898043609806705"></rect><rect fill="#2563EB" height="0.9776741439818923" width="1" x="78" y="0.02232585601810766"></rect><rect fill="#2563EB" height="0.6946071398952443" width="1" x="79" y="0.30539286010475575"></rect><rect fill="#2563EB" height="0.525217950072823" width="1" x="80" y="0.474782049927177"></rect><rect fill="#2563EB" height="0.4242687718239698" width="1" x="81" y="0.5757312281760302"></rect><rect fill="#2563EB" height="0.4745522880939464" width="1" x="82" y="0.5254477119060537"></rect><rect fill="#2563EB" height="0.46094143699573226" width="1" x="83" y="0.5390585630042677"></rect><rect fill="#2563EB" height="0.4897476900141561" width="1" x="84" y="0.5102523099858439"></rect><rect fill="#2563EB" height="0.748728482023424" width="1" x="85" y="0.251271517976576"></rect><rect fill="#2563EB" height="0.8370476173212977" width="1" x="86" y="0.16295238267870227"></rect><rect fill="#2563EB" height="0.6459261441054344" width="1" x="87" y="0.35407385589456564"></rect><rect fill="#2563EB" height="0.7005890915672327" width="1" x="88" y="0.2994109084327673"></rect><rect fill="#2563EB" height="0.5633591538654145" width="1" x="89" y="0.43664084613458554"></rect><rect fill="#2563EB" height="0.7786958451166666" width="1" x="90" y="0.22130415488333344"></rect><rect fill="#2563EB" height="0.6984392352464187" width="1" x="91" y="0.3015607647535813"></rect><rect fill="#2563EB" height="0.7117353501385885" width="1" x="92" y="0.28826464986141154"></rect><rect fill="#2563EB" height="0.8010717438358245" width="1" x="93" y="0.19892825616417553"></rect><rect fill="#2563EB" height="0.8014842777581824" width="1" x="94" y="0.19851572224181757"></rect><rect fill="#2563EB" height="0.6818435031425956" width="1" x="95" y="0.31815649685740444"></rect><rect fill="#2563EB" height="0.42626382729594037" width="1" x="96" y="0.5737361727040596"></rect><rect fill="#2563EB" height="0.06300906716337215" width="1" x="97" y="0.9369909328366278"></rect><rect fill="#2563EB" height="0.0028801818705261233" width="1" x="98" y="0.9971198181294739"></rect><rect fill="#2563EB" height="0.0004918553987284369" width="1" x="99" y="0.9995081446012716"></rect></svg>