<svg xmlns="http://www.w3.org/2000/svg" preserveAspectRatio="none" viewBox="0 0 100 1"><rect fill="#2563EB" height="0.08596778476504881" width="1" x="0" y="0.9140322152349512"></rect><rect fill="#2563EB" height="0.29394054638619527" width="1" x="1" y="0.7060594536138047"></rect><rect fill="#2563EB" height="0.5913042843809828" width="1" x="2" y="0.4086957156190172"></rect><rect fill="#2563EB" height="0.5814406173705569" width="1" x="3" y="0.41855938262944314"></rect><rect fill="#2563EB" height="0.5639732960064345" width="1" x="4" y="0.43602670399356547"></rect><rect fill="#2563EB" height="0.7601648771082036" width="1" x="5" y="0.23983512289179643"></rect><rect fill="#2563EB" height="0.4768741931993291" width="1" x="6" y="0.5231258068006709"></rect><rect fill="#2563EB" height="0.33128536266228914" width="1" x="7" y="0.6687146373377109"></rect><rect fill="#2563EB" height="0.335714502509855" width="1" x="8" y="0.664285497490145"></rect><rect fill="#2563EB" height="0.3510725639924343" width="1" x="9" y="0.6489274360075656"></rect><rect fill="#2563EB" height="0.5084246637833937" width="1" x="10" y="0.4915753362166063"></rect><rect fill="#2563EB" height="0.39698734224095394" width="1" x="11" y="0.603012657759046"></rect><rect fill="#2563EB" height="0.6735642685469552" width="1" x="12" y="0.32643573145304483"></rect><rect fill="#2563EB" height="0.48421073796173625" width="1" x="13" y="0.5157892620382638"></rect><rect fill="#2563EB" height="0.5618342332392426" width="1" x="14" y="0.43816576676075736"></rect><rect fill="#2563EB" height="0.6591388911825413" width="1" x="15" y="0.3408611088174587"></rect><rect fill="#2563EB" height="0.4285846772618661" width="1" x="16" y="0.5714153227381339"></rect><rect fill="#2563EB" height="0.3015076439301238" width="1" x="17" y="0.6984923560698761"></rect><rect fill="#2563EB" height="0.288133773073618" width="1" x="18" y="0.711866226926382"></rect><rect fill="#2563EB" height="0.43254109664444923" width="1" x="19" y="0.5674589033555508"></rect><rect fill="#2563EB" height="0.4805182641511988" width="1" x="20" y="0.5194817358488012"></rect><rect fill="#2563EB" height="0.41316966518892834" width="1" x="21" y="0.5868303348110717"></rect><rect fill="#2563EB" height="0.7527975258136204" width="1" x="22" y="0.24720247418637964"></rect><rect fill="#2563EB" height="0.47564212259335004" width="1" x="23" y="0.52435787740665"></rect><rect fill="#2563EB" height="0.6618179680390994" width="1" x="24" y="0.3381820319609006"></rect><rect fill="#2563EB" height="0.5752635685917743" width="1" x="25" y="0.4247364314082257"></rect><rect fill="#2563EB" height="0.36003597278839317" width="1" x="26" y="0.6399640272116068"></rect><rect fill="#2563EB" height="0.29848190985169265" width="1" x="27" y="0.7015180901483073"></rect><rect fill="#2563EB" height="0.2834837245106195" width="1" x="28" y="0.7165162754893806"></rect><rect fill="#2563EB" height="0.45730818790745115" width="1" x="29" y="0.5426918120925488"></rect><rect fill="#2563EB" height="0.42426033205078056" width="1" x="30" y="0.5757396679492195"></rect><rect fill="#2563EB" height="0.5364498726498491" width="1" x="31" y="0.4635501273501509"></rect><rect fill="#2563EB" height="0.651805826640095" width="1" x="32" y="0.348194173359905"></rect><rect fill="#2563EB" height="0.5886530426526668" width="1" x="33" y="0.4113469573473332"></rect><rect fill="#2563EB" height="0.807129751159955" width="1" x="34" y="0.192870248840045"></rect><rect fill="#2563EB" height="0.5813773290605471" width="1" x="35" y="0.41862267093945293"></rect><rect fill="#2563EB" height="0.40554618589881675" width="1" x="36" y="0.5944538141011833"></rect><rect fill="#2563EB" height="0.3687732411275754" width="1" x="37" y="0.6312267588724245"></rect><rect fill="#2563EB" height="0.3522124198040384" width="1" x="38" y="0.6477875801959616"></rect><rect fill="#2563EB" height="0.7229599479177061" width="1" x="39" y="0.2770400520822939"></rect><rect fill="#2563EB" height="0.8025633010807842" width="1" x="40" y="0.19743669891921578"></rect><rect fill="#2563EB" height="0.8041970136311806" width="1" x="41" y="0.19580298636881943"></rect><rect fill="#2563EB" height="0.7502048880531221" width="1" x="42" y="0.24979511194687787"></rect><rect fill="#2563EB" height="0.8042639421390158" width="1" x="43" y="0.19573605786098425"></rect><rect fill="#2563EB" height="0.9026480914988994" width="1" x="44" y="0.09735190850110065"></rect><rect fill="#2563EB" height="0.7656891207725438" width="1" x="45" y="0.2343108792274562"></rect><rect fill="#2563EB" height="0.6408208976006368" width="1" x="46" y="0.35917910239936324"></rect><rect fill="#2563EB" height="0.5301561527324637" width="1" x="47" y="0.46984384726753625"></rect><rect fill="#2563EB" height="0.6974422463743037" width="1" x="48" y="0.30255775362569626"></rect><rect fill="#2563EB" height="0.7767133290175288" width="1" x="49" y="0.22328667098247124"></rect><rect fill="#2563EB" height="0.7714242916993781" width="1" x="50" y="0.2285757083006219"></rect><rect fill="#2563EB" height="0.8061603437414944" width="1" x="51" y="0.19383965625850563"></rect><rect fill="#2563EB" height="0.608395882811257" width="1" x="52" y="0.391604117188743"></rect><rect fill="#2563EB" height="0.8256246602243033" width="1" x="53" y="0.17437533977569675"></rect><rect fill="#2563EB" height="0.7983593703082289" width="1" x="54" y="0.2016406296917711"></rect><rect fill="#2563EB" height="0.703501577292581" width="1" x="55" y="0.296498422707419"></rect><rect fill="#2563EB" height="0.6155968743444273" width="1" x="56" y="0.38440312565557266"></rect><rect fill="#2563EB" height="0.583215170318985" width="1" x="57" y="0.41678482968101505"></rect><rect fill="#2563EB" height="0.6523773139279002" width="1" x="58" y="0.3476226860720998"></rect><rect fill="#2563EB" height="0.7166991713398608" width="1" x="59" y="0.28330082866013917"></rect><rect fill="#2563EB" height="0.6380596412527623" width="1" x="60" y="0.36194035874723773"></rect><rect fill="#2563EB" height="0.873241661775631" width="1" x="61" y="0.126758338224369"></rect><rect fill="#2563EB" height="0.6049672459366868" width="1" x="62" y="0.3950327540633132"></rect><rect fill="#2563EB" height="0.8878884623094729" width="1" x="63" y="0.11211153769052706"></rect><rect fill="#2563EB" height="0.744709183198372" width="1" x="64" y="0.255290816801628"></rect><rect fill="#2563EB" height="0.5915798010460526" width="1" x="65" y="0.40842019895394743"></rect><rect fill="#2563EB" height="0.5619905439063102" width="1" x="66" y="0.4380094560936898"></rect><rect fill="#2563EB" height="0.5325186154575358" width="1" x="67" y="0.46748138454246424"></rect><rect fill="#2563EB" height="0.6896672280358787" width="1" x="68" y="0.31033277196412135"></rect><rect fill="#2563EB" height="0.7130281821757459" width="1" x="69" y="0.28697181782425407"></rect><rect fill="#2563EB" height="0.6615409024906747" width="1" x="70" y="0.33845909750932535"></rect><rect fill="#2563EB" height="0.7876945057356836" width="1" x="71" y="0.21230549426431644"></rect><rect fill="#2563EB" height="0.7620069659718604" width="1" x="72" y="0.23799303402813965"></rect><rect fill="#2563EB" height="0.8927328289864518" width="1" x="73" y="0.10726717101354821"></rect><rect fill="#2563EB" height="0.780991423195652" width="1" x="74" y="0.21900857680434804"></rect><rect fill="#2563EB" height="0.6171428763576257" width="1" x="75" y="0.38285712364237434"></rect><rect fill="#2563EB" height="0.47338045785285854" width="1" x="76" y="0.5266195421471415"></rect><rect fill="#2563EB" height="0.5659877830936373" width="1" x="77" y="0.4340122169063627"></rect><rect fill="#2563EB" height="0.7753724524053347" width="1" x="78" y="0.2246275475946653"></rect><rect fill="#2563EB" height="0.7919279473622862" width="1" x="79" y="0.20807205263771378"></rect><rect fill="#2563EB" height="1" width="1" x="80" y="0"></rect><rect fill="#2563EB" height="0.9387449235638874" width="1" x="81" y="0.06125507643611261"></rect><rect fill="#2563EB" height="0.7566209391916183" width="1" x="82" y="0.24337906080838168"></rect><rect fill="#2563EB" height="0.7852118733951494" width="1" x="83" y="0.21478812660485058"></rect><rect fill="#2563EB" height="0.5189849638147384" width="1" x="84" y="0.48101503618526165"></rect><rect fill="#2563EB" height="0.4946152309060114" width="1" x="85" y="0.5053847690939886"></rect><rect fill="#2563EB" height="0.17727952626367194" width="1" x="86" y="0.8227204737363281"></rect><rect fill="#2563EB" height="0.06099718794977393" width="1" x="87" y="0.9390028120502261"></rect><rect fill="#2563EB" height="0.059772556217618546" width="1" x="88" y="0.9402274437823814"></rect><rect fill="#2563EB" height="0.0501092659751103" width="1" x="89" y="0.9498907340248897"></rect><rect fill="#2563EB" height="0.05419532665043519" width="1" x="90" y="0.9458046733495649"></rect><rect fill="#2563EB" height="0.07151555158817499" width="1" x="91" y="0.928484448411825"></rect><rect fill="#2563EB" height="0.05773140391759239" width="1" x="92" y="0.9422685960824077"></rect><rect fill="#2563EB" height="0.010119319415778488" width="1" x="93" y="0.9898806805842215"></rect><rect fill="#2563EB" height="0.002017340672527119" width="1" x="94" y="0.9979826593274729"></rect><rect fill="#2563EB" height="0.00036021694778551143" width="1" x="95" y="0.9996397830522145"></rect><rect fill="#2563EB" height="0.00008648425649979438" width="1" x="96" y="0.9999135157435002"></rect><rect fill="#2563EB" height="0.000002519256253545214" width="1" x="97" y="0.9999974807437465"></rect><rect fill="#2563EB" height="0" width="1" x="98" y="1"></rect><rect fill="#2563EB" height="0" width="1" x="99" y="1"></rect></svg>