<svg xmlns="http://www.w3.org/2000/svg" preserveAspectRatio="none" viewBox="0 0 100 1"><rect fill="#2563EB" height="0.7267255950947067" width="1" x="0" y="0.2732744049052933"></rect><rect fill="#2563EB" height="0.94196989863825" width="1" x="1" y="0.05803010136175002"></rect><rect fill="#2563EB" height="0.8211641897682724" width="1" x="2" y="0.17883581023172757"></rect><rect fill="#2563EB" height="0.9345416580762128" width="1" x="3" y="0.06545834192378719"></rect><rect fill="#2563EB" height="0.866816217887938" width="1" x="4" y="0.13318378211206205"></rect><rect fill="#2563EB" height="0.9921836564662102" width="1" x="5" y="0.007816343533789794"></rect><rect fill="#2563EB" height="0.8299234942033031" width="1" x="6" y="0.17007650579669686"></rect><rect fill="#2563EB" height="0.8511612174541188" width="1" x="7" y="0.14883878254588123"></rect><rect fill="#2563EB" height="0.8034490461248905" width="1" x="8" y="0.19655095387510946"></rect><rect fill="#2563EB" height="0.6646492690422924" width="1" x="9" y="0.3353507309577076"></rect><rect fill="#2563EB" height="0.6453581553889265" width="1" x="10" y="0.3546418446110735"></rect><rect fill="#2563EB" height="0.6752449240205058" width="1" x="11" y="0.32475507597949416"></rect><rect fill="#2563EB" height="0.8491480243823682" width="1" x="12" y="0.15085197561763175"></rect><rect fill="#2563EB" height="0.8997820142553622" width="1" x="13" y="0.1002179857446378"></rect><rect fill="#2563EB" height="0.9232003673992201" width="1" x="14" y="0.07679963260077993"></rect><rect fill="#2563EB" height="0.7965903493886897" width="1" x="15" y="0.20340965061131033"></rect><rect fill="#2563EB" height="0.8532500694131896" width="1" x="16" y="0.1467499305868104"></rect><rect fill="#2563EB" height="0.7340962254825645" width="1" x="17" y="0.2659037745174355"></rect><rect fill="#2563EB" height="0.599737034143214" width="1" x="18" y="0.400262965856786"></rect><rect fill="#2563EB" height="0.7888782293664275" width="1" x="19" y="0.21112177063357251"></rect><rect fill="#2563EB" height="0.8377649233487616" width="1" x="20" y="0.16223507665123837"></rect><rect fill="#2563EB" height="0.860808807424375" width="1" x="21" y="0.13919119257562496"></rect><rect fill="#2563EB" height="0.8148893504063589" width="1" x="22" y="0.1851106495936411"></rect><rect fill="#2563EB" height="0.686454121899893" width="1" x="23" y="0.31354587810010703"></rect><rect fill="#2563EB" height="0.7727450269514338" width="1" x="24" y="0.22725497304856623"></rect><rect fill="#2563EB" height="0.9968367120992907" width="1" x="25" y="0.0031632879007092995"></rect><rect fill="#2563EB" height="0.9210283256800712" width="1" x="26" y="0.0789716743199288"></rect><rect fill="#2563EB" height="0.9853290067014128" width="1" x="27" y="0.014670993298587232"></rect><rect fill="#2563EB" height="0.8977314771566939" width="1" x="28" y="0.10226852284330612"></rect><rect fill="#2563EB" height="0.9241564388069831" width="1" x="29" y="0.07584356119301694"></rect><rect fill="#2563EB" height="0.8231660392701925" width="1" x="30" y="0.1768339607298075"></rect><rect fill="#2563EB" height="0.847013159021879" width="1" x="31" y="0.15298684097812099"></rect><rect fill="#2563EB" height="0.9122612527282242" width="1" x="32" y="0.08773874727177577"></rect><rect fill="#2563EB" height="0.6979574004217437" width="1" x="33" y="0.3020425995782563"></rect><rect fill="#2563EB" height="0.7065317874367694" width="1" x="34" y="0.29346821256323063"></rect><rect fill="#2563EB" height="0.8231199753241111" width="1" x="35" y="0.17688002467588892"></rect><rect fill="#2563EB" height="0.8947595702649767" width="1" x="36" y="0.10524042973502334"></rect><rect fill="#2563EB" height="0.8754737531344837" width="1" x="37" y="0.12452624686551628"></rect><rect fill="#2563EB" height="0.900104925728572" width="1" x="38" y="0.09989507427142796"></rect><rect fill="#2563EB" height="0.9427866408597011" width="1" x="39" y="0.0572133591402989"></rect><rect fill="#2563EB" height="0.9995205272790695" width="1" x="40" y="0.0004794727209305183"></rect><rect fill="#2563EB" height="0.6954254447899394" width="1" x="41" y="0.3045745552100606"></rect><rect fill="#2563EB" height="0.7021990346495912" width="1" x="42" y="0.2978009653504088"></rect><rect fill="#2563EB" height="0.6950411471944357" width="1" x="43" y="0.30495885280556434"></rect><rect fill="#2563EB" height="0.9040253047266088" width="1" x="44" y="0.0959746952733912"></rect><rect fill="#2563EB" height="0.8623491863228016" width="1" x="45" y="0.13765081367719845"></rect><rect fill="#2563EB" height="0.8623561906803727" width="1" x="46" y="0.13764380931962727"></rect><rect fill="#2563EB" height="0.7931544025637371" width="1" x="47" y="0.20684559743626285"></rect><rect fill="#2563EB" height="0.8111095317367614" width="1" x="48" y="0.18889046826323863"></rect><rect fill="#2563EB" height="0.8197527136476601" width="1" x="49" y="0.18024728635233989"></rect><rect fill="#2563EB" height="0.8892528823737484" width="1" x="50" y="0.11074711762625156"></rect><rect fill="#2563EB" height="0.9314203643027217" width="1" x="51" y="0.06857963569727832"></rect><rect fill="#2563EB" height="0.8108921508806204" width="1" x="52" y="0.1891078491193796"></rect><rect fill="#2563EB" height="0.992542068339758" width="1" x="53" y="0.007457931660242001"></rect><rect fill="#2563EB" height="0.9151828593216996" width="1" x="54" y="0.08481714067830037"></rect><rect fill="#2563EB" height="0.867246229173094" width="1" x="55" y="0.13275377082690598"></rect><rect fill="#2563EB" height="0.9810484713312795" width="1" x="56" y="0.01895152866872052"></rect><rect fill="#2563EB" height="0.8420147601480409" width="1" x="57" y="0.15798523985195911"></rect><rect fill="#2563EB" height="0.638274714632941" width="1" x="58" y="0.36172528536705895"></rect><rect fill="#2563EB" height="0.8122380513249636" width="1" x="59" y="0.18776194867503637"></rect><rect fill="#2563EB" height="0.955845692286914" width="1" x="60" y="0.04415430771308604"></rect><rect fill="#2563EB" height="0.8758759290093994" width="1" x="61" y="0.12412407099060063"></rect><rect fill="#2563EB" height="0.7880732862914778" width="1" x="62" y="0.21192671370852223"></rect><rect fill="#2563EB" height="0.877269730513667" width="1" x="63" y="0.12273026948633303"></rect><rect fill="#2563EB" height="0.8137117797003358" width="1" x="64" y="0.1862882202996642"></rect><rect fill="#2563EB" height="0.8372201453430737" width="1" x="65" y="0.16277985465692635"></rect><rect fill="#2563EB" height="0.8041674792988738" width="1" x="66" y="0.19583252070112622"></rect><rect fill="#2563EB" height="0.8230566191077172" width="1" x="67" y="0.1769433808922828"></rect><rect fill="#2563EB" height="0.748245480382168" width="1" x="68" y="0.251754519617832"></rect><rect fill="#2563EB" height="1" width="1" x="69" y="0"></rect><rect fill="#2563EB" height="0.7883124585206882" width="1" x="70" y="0.2116875414793118"></rect><rect fill="#2563EB" height="0.9119910692043586" width="1" x="71" y="0.08800893079564143"></rect><rect fill="#2563EB" height="0.6700198357043382" width="1" x="72" y="0.3299801642956618"></rect><rect fill="#2563EB" height="0.7794909254694576" width="1" x="73" y="0.22050907453054236"></rect><rect fill="#2563EB" height="0.6814786475304007" width="1" x="74" y="0.31852135246959934"></rect><rect fill="#2563EB" height="0.96345441912539" width="1" x="75" y="0.03654558087461002"></rect><rect fill="#2563EB" height="0.7111380412574709" width="1" x="76" y="0.28886195874252907"></rect><rect fill="#2563EB" height="0.9440400095630858" width="1" x="77" y="0.05595999043691424"></rect><rect fill="#2563EB" height="0.7061656460239938" width="1" x="78" y="0.2938343539760062"></rect><rect fill="#2563EB" height="0.8358981326293663" width="1" x="79" y="0.1641018673706337"></rect><rect fill="#2563EB" height="0.7748826994841832" width="1" x="80" y="0.2251173005158168"></rect><rect fill="#2563EB" height="0.7574652287356048" width="1" x="81" y="0.24253477126439515"></rect><rect fill="#2563EB" height="0.677227090207298" width="1" x="82" y="0.322772909792702"></rect><rect fill="#2563EB" height="0.7393887978446072" width="1" x="83" y="0.2606112021553928"></rect><rect fill="#2563EB" height="0.7337481902738979" width="1" x="84" y="0.2662518097261021"></rect><rect fill="#2563EB" height="0.8660479003827163" width="1" x="85" y="0.13395209961728372"></rect><rect fill="#2563EB" height="0.7768391526735972" width="1" x="86" y="0.22316084732640284"></rect><rect fill="#2563EB" height="0.9397969213143587" width="1" x="87" y="0.06020307868564134"></rect><rect fill="#2563EB" height="0.8461450694889706" width="1" x="88" y="0.1538549305110294"></rect><rect fill="#2563EB" height="0.7693425434262213" width="1" x="89" y="0.23065745657377867"></rect><rect fill="#2563EB" height="0.5952900572248889" width="1" x="90" y="0.4047099427751111"></rect><rect fill="#2563EB" height="0.6592371636368317" width="1" x="91" y="0.3407628363631683"></rect><rect fill="#2563EB" height="0.6583558392423482" width="1" x="92" y="0.3416441607576518"></rect><rect fill="#2563EB" height="0.8848425928586369" width="1" x="93" y="0.11515740714136313"></rect><rect fill="#2563EB" height="0.7687751641199857" width="1" x="94" y="0.2312248358800143"></rect><rect fill="#2563EB" height="0.758996003430306" width="1" x="95" y="0.24100399656969396"></rect><rect fill="#2563EB" height="0.7708930175189118" width="1" x="96" y="0.22910698248108818"></rect><rect fill="#2563EB" height="0.4664829521897363" width="1" x="97" y="0.5335170478102638"></rect><rect fill="#2563EB" height="0.007664125188492558" width="1" x="98" y="0.9923358748115074"></rect><rect fill="#2563EB" height="0.00017441155929515302" width="1" x="99" y="0.9998255884407048"></rect></svg>