<svg xmlns="http://www.w3.org/2000/svg" preserveAspectRatio="none" viewBox="0 0 100 1"><rect fill="#2563EB" height="0.3562922758123222" width="1" x="0" y="0.6437077241876779"></rect><rect fill="#2563EB" height="0.39212013076716634" width="1" x="1" y="0.6078798692328337"></rect><rect fill="#2563EB" height="0.42175806754941936" width="1" x="2" y="0.5782419324505806"></rect><rect fill="#2563EB" height="0.40523901430747084" width="1" x="3" y="0.5947609856925291"></rect><rect fill="#2563EB" height="0.4679439274867011" width="1" x="4" y="0.5320560725132989"></rect><rect fill="#2563EB" height="0.3877402688990707" width="1" x="5" y="0.6122597311009292"></rect><rect fill="#2563EB" height="0.4346029111203123" width="1" x="6" y="0.5653970888796878"></rect><rect fill="#2563EB" height="0.4111215171537725" width="1" x="7" y="0.5888784828462275"></rect><rect fill="#2563EB" height="0.37121820331698774" width="1" x="8" y="0.6287817966830123"></rect><rect fill="#2563EB" height="0.42959906660499586" width="1" x="9" y="0.5704009333950042"></rect><rect fill="#2563EB" height="0.4345103948634032" width="1" x="10" y="0.5654896051365967"></rect><rect fill="#2563EB" height="0.39486087792128594" width="1" x="11" y="0.6051391220787141"></rect><rect fill="#2563EB" height="0.26710761123085197" width="1" x="12" y="0.7328923887691481"></rect><rect fill="#2563EB" height="0.7884476769588543" width="1" x="13" y="0.21155232304114568"></rect><rect fill="#2563EB" height="0.6190043624796087" width="1" x="14" y="0.38099563752039134"></rect><rect fill="#2563EB" height="0.6722229868898011" width="1" x="15" y="0.3277770131101989"></rect><rect fill="#2563EB" height="0.7540600531861492" width="1" x="16" y="0.24593994681385078"></rect><rect fill="#2563EB" height="0.6320470559508725" width="1" x="17" y="0.3679529440491275"></rect><rect fill="#2563EB" height="0.6749224236875516" width="1" x="18" y="0.3250775763124484"></rect><rect fill="#2563EB" height="0.660718866592825" width="1" x="19" y="0.33928113340717503"></rect><rect fill="#2563EB" height="0.6560819152793114" width="1" x="20" y="0.34391808472068863"></rect><rect fill="#2563EB" height="0.7345890047915674" width="1" x="21" y="0.2654109952084326"></rect><rect fill="#2563EB" height="0.6890884953635077" width="1" x="22" y="0.3109115046364923"></rect><rect fill="#2563EB" height="0.699071460433461" width="1" x="23" y="0.300928539566539"></rect><rect fill="#2563EB" height="0.7186372907587721" width="1" x="24" y="0.28136270924122786"></rect><rect fill="#2563EB" height="0.6133249399620943" width="1" x="25" y="0.38667506003790575"></rect><rect fill="#2563EB" height="0.6907302586399128" width="1" x="26" y="0.3092697413600872"></rect><rect fill="#2563EB" height="0.7337773475851951" width="1" x="27" y="0.2662226524148049"></rect><rect fill="#2563EB" height="0.6852803757223112" width="1" x="28" y="0.31471962427768885"></rect><rect fill="#2563EB" height="0.7560854590188243" width="1" x="29" y="0.2439145409811757"></rect><rect fill="#2563EB" height="0.6624041103597343" width="1" x="30" y="0.33759588964026566"></rect><rect fill="#2563EB" height="0.7776814878660404" width="1" x="31" y="0.2223185121339596"></rect><rect fill="#2563EB" height="0.9024722235716712" width="1" x="32" y="0.09752777642832877"></rect><rect fill="#2563EB" height="0.7068537839560278" width="1" x="33" y="0.2931462160439722"></rect><rect fill="#2563EB" height="0.8231177026833886" width="1" x="34" y="0.17688229731661143"></rect><rect fill="#2563EB" height="0.9208649252380736" width="1" x="35" y="0.07913507476192638"></rect><rect fill="#2563EB" height="0.612332715057179" width="1" x="36" y="0.387667284942821"></rect><rect fill="#2563EB" height="0.5940349471845482" width="1" x="37" y="0.4059650528154518"></rect><rect fill="#2563EB" height="0.7631700236359131" width="1" x="38" y="0.23682997636408687"></rect><rect fill="#2563EB" height="0.711914579130756" width="1" x="39" y="0.28808542086924405"></rect><rect fill="#2563EB" height="0.743776842857921" width="1" x="40" y="0.256223157142079"></rect><rect fill="#2563EB" height="0.760669494055967" width="1" x="41" y="0.23933050594403305"></rect><rect fill="#2563EB" height="0.8360877002650767" width="1" x="42" y="0.16391229973492327"></rect><rect fill="#2563EB" height="0.7725301472419884" width="1" x="43" y="0.22746985275801157"></rect><rect fill="#2563EB" height="0.7234826522342351" width="1" x="44" y="0.27651734776576486"></rect><rect fill="#2563EB" height="0.6940114152581507" width="1" x="45" y="0.3059885847418493"></rect><rect fill="#2563EB" height="0.7962163601697415" width="1" x="46" y="0.2037836398302585"></rect><rect fill="#2563EB" height="0.7777321774159615" width="1" x="47" y="0.22226782258403854"></rect><rect fill="#2563EB" height="0.6765694714168095" width="1" x="48" y="0.32343052858319055"></rect><rect fill="#2563EB" height="0.8650325039275897" width="1" x="49" y="0.13496749607241032"></rect><rect fill="#2563EB" height="0.9457761666237464" width="1" x="50" y="0.05422383337625358"></rect><rect fill="#2563EB" height="0.7210703574002804" width="1" x="51" y="0.27892964259971964"></rect><rect fill="#2563EB" height="0.6203798844385806" width="1" x="52" y="0.3796201155614194"></rect><rect fill="#2563EB" height="0.7734518514744484" width="1" x="53" y="0.2265481485255516"></rect><rect fill="#2563EB" height="0.7483566633972191" width="1" x="54" y="0.25164333660278093"></rect><rect fill="#2563EB" height="0.7257689494628393" width="1" x="55" y="0.2742310505371607"></rect><rect fill="#2563EB" height="0.7638177095909858" width="1" x="56" y="0.23618229040901417"></rect><rect fill="#2563EB" height="0.8333892822039453" width="1" x="57" y="0.16661071779605474"></rect><rect fill="#2563EB" height="0.6804094595993376" width="1" x="58" y="0.31959054040066237"></rect><rect fill="#2563EB" height="0.7471308275137445" width="1" x="59" y="0.2528691724862555"></rect><rect fill="#2563EB" height="0.9573397423428927" width="1" x="60" y="0.04266025765710735"></rect><rect fill="#2563EB" height="0.878676010917593" width="1" x="61" y="0.12132398908240705"></rect><rect fill="#2563EB" height="0.9373197662451591" width="1" x="62" y="0.06268023375484089"></rect><rect fill="#2563EB" height="0.9263942431794002" width="1" x="63" y="0.07360575682059978"></rect><rect fill="#2563EB" height="0.8240838682998378" width="1" x="64" y="0.17591613170016218"></rect><rect fill="#2563EB" height="0.8179348081974662" width="1" x="65" y="0.18206519180253378"></rect><rect fill="#2563EB" height="0.8078663464128831" width="1" x="66" y="0.19213365358711687"></rect><rect fill="#2563EB" height="0.8789991789797041" width="1" x="67" y="0.12100082102029586"></rect><rect fill="#2563EB" height="0.9079801605692102" width="1" x="68" y="0.09201983943078984"></rect><rect fill="#2563EB" height="0.8559947285615118" width="1" x="69" y="0.14400527143848818"></rect><rect fill="#2563EB" height="0.762865524629564" width="1" x="70" y="0.23713447537043597"></rect><rect fill="#2563EB" height="0.779073588190371" width="1" x="71" y="0.22092641180962902"></rect><rect fill="#2563EB" height="0.9258069087736408" width="1" x="72" y="0.0741930912263592"></rect><rect fill="#2563EB" height="0.7833890109125885" width="1" x="73" y="0.2166109890874115"></rect><rect fill="#2563EB" height="0.8624691042858812" width="1" x="74" y="0.1375308957141188"></rect><rect fill="#2563EB" height="0.9893801940003822" width="1" x="75" y="0.01061980599961776"></rect><rect fill="#2563EB" height="0.8801104170564862" width="1" x="76" y="0.11988958294351382"></rect><rect fill="#2563EB" height="0.6465568341687615" width="1" x="77" y="0.35344316583123847"></rect><rect fill="#2563EB" height="0.7252024299493987" width="1" x="78" y="0.27479757005060135"></rect><rect fill="#2563EB" height="0.9528716135933119" width="1" x="79" y="0.04712838640668815"></rect><rect fill="#2563EB" height="0.7711780535973192" width="1" x="80" y="0.22882194640268083"></rect><rect fill="#2563EB" height="0.7980842427864936" width="1" x="81" y="0.2019157572135064"></rect><rect fill="#2563EB" height="0.7866378745823925" width="1" x="82" y="0.21336212541760746"></rect><rect fill="#2563EB" height="0.8193638719632873" width="1" x="83" y="0.1806361280367127"></rect><rect fill="#2563EB" height="0.6980305494438607" width="1" x="84" y="0.30196945055613933"></rect><rect fill="#2563EB" height="0.8868848505667214" width="1" x="85" y="0.1131151494332786"></rect><rect fill="#2563EB" height="0.9457142175899735" width="1" x="86" y="0.05428578241002646"></rect><rect fill="#2563EB" height="1" width="1" x="87" y="0"></rect><rect fill="#2563EB" height="0.8586071436717846" width="1" x="88" y="0.1413928563282154"></rect><rect fill="#2563EB" height="0.9303568688737504" width="1" x="89" y="0.06964313112624965"></rect><rect fill="#2563EB" height="0.8727886553694401" width="1" x="90" y="0.12721134463055994"></rect><rect fill="#2563EB" height="0.7539027519716023" width="1" x="91" y="0.24609724802839772"></rect><rect fill="#2563EB" height="0.9023462254655504" width="1" x="92" y="0.09765377453444957"></rect><rect fill="#2563EB" height="0.8242355647553432" width="1" x="93" y="0.1757644352446568"></rect><rect fill="#2563EB" height="0.8025779227293112" width="1" x="94" y="0.19742207727068883"></rect><rect fill="#2563EB" height="0.975618388063295" width="1" x="95" y="0.02438161193670496"></rect><rect fill="#2563EB" height="0.7864155773114893" width="1" x="96" y="0.21358442268851074"></rect><rect fill="#2563EB" height="0.7858648474831929" width="1" x="97" y="0.21413515251680715"></rect><rect fill="#2563EB" height="0.10882966273560843" width="1" x="98" y="0.8911703372643915"></rect><rect fill="#2563EB" height="0.0011974067918959729" width="1" x="99" y="0.998802593208104"></rect></svg>