<svg xmlns="http://www.w3.org/2000/svg" preserveAspectRatio="none" viewBox="0 0 100 1"><rect fill="#2563EB" height="0.4911369095513063" width="1" x="0" y="0.5088630904486937"></rect><rect fill="#2563EB" height="0.5800397621461219" width="1" x="1" y="0.41996023785387815"></rect><rect fill="#2563EB" height="0.6560654365231742" width="1" x="2" y="0.3439345634768258"></rect><rect fill="#2563EB" height="0.4741497813956139" width="1" x="3" y="0.5258502186043861"></rect><rect fill="#2563EB" height="0.5139614195988739" width="1" x="4" y="0.48603858040112613"></rect><rect fill="#2563EB" height="0.6244882039953739" width="1" x="5" y="0.37551179600462614"></rect><rect fill="#2563EB" height="0.5277623154354278" width="1" x="6" y="0.47223768456457216"></rect><rect fill="#2563EB" height="0.6213963179059776" width="1" x="7" y="0.3786036820940224"></rect><rect fill="#2563EB" height="0.5261408775580079" width="1" x="8" y="0.47385912244199213"></rect><rect fill="#2563EB" height="0.5180407017572177" width="1" x="9" y="0.4819592982427823"></rect><rect fill="#2563EB" height="0.7471193009354262" width="1" x="10" y="0.2528806990645738"></rect><rect fill="#2563EB" height="0.6750688956007751" width="1" x="11" y="0.3249311043992249"></rect><rect fill="#2563EB" height="0.7948742719995234" width="1" x="12" y="0.20512572800047657"></rect><rect fill="#2563EB" height="0.5933831887182527" width="1" x="13" y="0.4066168112817473"></rect><rect fill="#2563EB" height="0.640561149595192" width="1" x="14" y="0.35943885040480805"></rect><rect fill="#2563EB" height="0.6999945141026965" width="1" x="15" y="0.30000548589730347"></rect><rect fill="#2563EB" height="0.6420249962108633" width="1" x="16" y="0.3579750037891367"></rect><rect fill="#2563EB" height="0.7344719719104225" width="1" x="17" y="0.26552802808957754"></rect><rect fill="#2563EB" height="0.6454305353105954" width="1" x="18" y="0.35456946468940465"></rect><rect fill="#2563EB" height="0.6809425575444177" width="1" x="19" y="0.3190574424555823"></rect><rect fill="#2563EB" height="0.7460850551064037" width="1" x="20" y="0.25391494489359634"></rect><rect fill="#2563EB" height="0.6186091880492615" width="1" x="21" y="0.38139081195073854"></rect><rect fill="#2563EB" height="0.6679978544431955" width="1" x="22" y="0.3320021455568045"></rect><rect fill="#2563EB" height="0.5831163482922844" width="1" x="23" y="0.4168836517077156"></rect><rect fill="#2563EB" height="0.6130160110362376" width="1" x="24" y="0.3869839889637624"></rect><rect fill="#2563EB" height="0.8266232617528119" width="1" x="25" y="0.17337673824718813"></rect><rect fill="#2563EB" height="0.6388462295702061" width="1" x="26" y="0.3611537704297939"></rect><rect fill="#2563EB" height="0.7244999207019328" width="1" x="27" y="0.2755000792980672"></rect><rect fill="#2563EB" height="0.685624921669173" width="1" x="28" y="0.314375078330827"></rect><rect fill="#2563EB" height="0.6670739556081627" width="1" x="29" y="0.33292604439183726"></rect><rect fill="#2563EB" height="0.84877202431404" width="1" x="30" y="0.15122797568596003"></rect><rect fill="#2563EB" height="0.6824317899411985" width="1" x="31" y="0.31756821005880154"></rect><rect fill="#2563EB" height="0.8847242374799698" width="1" x="32" y="0.11527576252003024"></rect><rect fill="#2563EB" height="0.6196742741342386" width="1" x="33" y="0.3803257258657614"></rect><rect fill="#2563EB" height="0.6464259425090986" width="1" x="34" y="0.35357405749090143"></rect><rect fill="#2563EB" height="0.7562779365615819" width="1" x="35" y="0.24372206343841807"></rect><rect fill="#2563EB" height="0.6606213308355117" width="1" x="36" y="0.33937866916448833"></rect><rect fill="#2563EB" height="0.7809811615096941" width="1" x="37" y="0.2190188384903059"></rect><rect fill="#2563EB" height="0.9931420869266011" width="1" x="38" y="0.006857913073398891"></rect><rect fill="#2563EB" height="0.8489249764328463" width="1" x="39" y="0.15107502356715374"></rect><rect fill="#2563EB" height="0.8728750687952359" width="1" x="40" y="0.1271249312047641"></rect><rect fill="#2563EB" height="0.6539722731593693" width="1" x="41" y="0.34602772684063066"></rect><rect fill="#2563EB" height="1" width="1" x="42" y="0"></rect><rect fill="#2563EB" height="0.5969817983079677" width="1" x="43" y="0.4030182016920323"></rect><rect fill="#2563EB" height="0.6566842255914569" width="1" x="44" y="0.3433157744085431"></rect><rect fill="#2563EB" height="0.7983451029353146" width="1" x="45" y="0.20165489706468542"></rect><rect fill="#2563EB" height="0.6024315256117984" width="1" x="46" y="0.39756847438820164"></rect><rect fill="#2563EB" height="0.8267767168000719" width="1" x="47" y="0.17322328319992808"></rect><rect fill="#2563EB" height="0.9387620288772199" width="1" x="48" y="0.061237971122780066"></rect><rect fill="#2563EB" height="0.8820459041347808" width="1" x="49" y="0.11795409586521921"></rect><rect fill="#2563EB" height="0.7972638979798448" width="1" x="50" y="0.20273610202015524"></rect><rect fill="#2563EB" height="0.7062567612820194" width="1" x="51" y="0.2937432387179806"></rect><rect fill="#2563EB" height="0.9417402413060649" width="1" x="52" y="0.05825975869393507"></rect><rect fill="#2563EB" height="0.7215549478506398" width="1" x="53" y="0.2784450521493602"></rect><rect fill="#2563EB" height="0.6397314162767607" width="1" x="54" y="0.36026858372323933"></rect><rect fill="#2563EB" height="0.8192696971275711" width="1" x="55" y="0.18073030287242886"></rect><rect fill="#2563EB" height="0.6573104275554601" width="1" x="56" y="0.3426895724445399"></rect><rect fill="#2563EB" height="0.8473317419069276" width="1" x="57" y="0.15266825809307238"></rect><rect fill="#2563EB" height="0.618145065035151" width="1" x="58" y="0.381854934964849"></rect><rect fill="#2563EB" height="0.7338809342697399" width="1" x="59" y="0.2661190657302601"></rect><rect fill="#2563EB" height="0.8251754517250269" width="1" x="60" y="0.17482454827497307"></rect><rect fill="#2563EB" height="0.7012679847305967" width="1" x="61" y="0.2987320152694033"></rect><rect fill="#2563EB" height="0.8598463676268608" width="1" x="62" y="0.14015363237313916"></rect><rect fill="#2563EB" height="0.7132977722401781" width="1" x="63" y="0.2867022277598219"></rect><rect fill="#2563EB" height="0.7636547663007406" width="1" x="64" y="0.23634523369925942"></rect><rect fill="#2563EB" height="0.8418657557724394" width="1" x="65" y="0.15813424422756062"></rect><rect fill="#2563EB" height="0.6331635071594175" width="1" x="66" y="0.3668364928405825"></rect><rect fill="#2563EB" height="0.8024973353613877" width="1" x="67" y="0.19750266463861232"></rect><rect fill="#2563EB" height="0.5250570578682906" width="1" x="68" y="0.4749429421317094"></rect><rect fill="#2563EB" height="0.7071512965871029" width="1" x="69" y="0.29284870341289715"></rect><rect fill="#2563EB" height="0.47096400023137314" width="1" x="70" y="0.5290359997686269"></rect><rect fill="#2563EB" height="0.4309262891447992" width="1" x="71" y="0.5690737108552009"></rect><rect fill="#2563EB" height="0.38936666118751356" width="1" x="72" y="0.6106333388124865"></rect><rect fill="#2563EB" height="0.31639237171110357" width="1" x="73" y="0.6836076282888964"></rect><rect fill="#2563EB" height="0.41137007010199594" width="1" x="74" y="0.588629929898004"></rect><rect fill="#2563EB" height="0.3389942833002147" width="1" x="75" y="0.6610057166997854"></rect><rect fill="#2563EB" height="0.38200566444359185" width="1" x="76" y="0.6179943355564081"></rect><rect fill="#2563EB" height="0.33656195450605936" width="1" x="77" y="0.6634380454939406"></rect><rect fill="#2563EB" height="0.37224606982489866" width="1" x="78" y="0.6277539301751014"></rect><rect fill="#2563EB" height="0.37911799131506857" width="1" x="79" y="0.6208820086849314"></rect><rect fill="#2563EB" height="0.3715539982076135" width="1" x="80" y="0.6284460017923865"></rect><rect fill="#2563EB" height="0.4237638752592739" width="1" x="81" y="0.5762361247407262"></rect><rect fill="#2563EB" height="0.38579311558261786" width="1" x="82" y="0.6142068844173821"></rect><rect fill="#2563EB" height="0.32188444430718366" width="1" x="83" y="0.6781155556928163"></rect><rect fill="#2563EB" height="0.40984316675252963" width="1" x="84" y="0.5901568332474704"></rect><rect fill="#2563EB" height="0.337611073073097" width="1" x="85" y="0.662388926926903"></rect><rect fill="#2563EB" height="0.3676321878471495" width="1" x="86" y="0.6323678121528504"></rect><rect fill="#2563EB" height="0.36146017400860897" width="1" x="87" y="0.638539825991391"></rect><rect fill="#2563EB" height="0.3322586125441768" width="1" x="88" y="0.6677413874558231"></rect><rect fill="#2563EB" height="0.5496446951451852" width="1" x="89" y="0.4503553048548148"></rect><rect fill="#2563EB" height="0.6139000779462169" width="1" x="90" y="0.3860999220537831"></rect><rect fill="#2563EB" height="0.03734433293394325" width="1" x="91" y="0.9626556670660568"></rect><rect fill="#2563EB" height="0.0008706859143125026" width="1" x="92" y="0.9991293140856875"></rect><rect fill="#2563EB" height="0.000006783317694590127" width="1" x="93" y="0.9999932166823055"></rect><rect fill="#2563EB" height="0" width="1" x="94" y="1"></rect><rect fill="#2563EB" height="0" width="1" x="95" y="1"></rect><rect fill="#2563EB" height="0" width="1" x="96" y="1"></rect><rect fill="#2563EB" height="0" width="1" x="97" y="1"></rect><rect fill="#2563EB" height="0" width="1" x="98" y="1"></rect><rect fill="#2563EB" height="NaN" width="1" x="99" y="NaN"></rect></svg>