<svg xmlns="http://www.w3.org/2000/svg" preserveAspectRatio="none" viewBox="0 0 100 1"><rect fill="#2563EB" height="0.492188778708082" width="1" x="0" y="0.507811221291918"></rect><rect fill="#2563EB" height="0.4697503586527898" width="1" x="1" y="0.5302496413472102"></rect><rect fill="#2563EB" height="0.49116645963371725" width="1" x="2" y="0.5088335403662827"></rect><rect fill="#2563EB" height="0.5516389746205517" width="1" x="3" y="0.44836102537944833"></rect><rect fill="#2563EB" height="0.5672227309060683" width="1" x="4" y="0.43277726909393166"></rect><rect fill="#2563EB" height="0.572640969414706" width="1" x="5" y="0.427359030585294"></rect><rect fill="#2563EB" height="0.5710203233930529" width="1" x="6" y="0.42897967660694714"></rect><rect fill="#2563EB" height="0.6527691721799522" width="1" x="7" y="0.34723082782004777"></rect><rect fill="#2563EB" height="0.567901794368103" width="1" x="8" y="0.43209820563189705"></rect><rect fill="#2563EB" height="0.5508029591551385" width="1" x="9" y="0.44919704084486145"></rect><rect fill="#2563EB" height="0.5566465077230326" width="1" x="10" y="0.4433534922769674"></rect><rect fill="#2563EB" height="0.5956530085081168" width="1" x="11" y="0.40434699149188325"></rect><rect fill="#2563EB" height="0.6701427826082221" width="1" x="12" y="0.32985721739177787"></rect><rect fill="#2563EB" height="0.5771342162410442" width="1" x="13" y="0.4228657837589558"></rect><rect fill="#2563EB" height="0.5557850452158659" width="1" x="14" y="0.4442149547841341"></rect><rect fill="#2563EB" height="0.5152266247041013" width="1" x="15" y="0.4847733752958987"></rect><rect fill="#2563EB" height="0.5248982340804313" width="1" x="16" y="0.47510176591956865"></rect><rect fill="#2563EB" height="0.4920318273497676" width="1" x="17" y="0.5079681726502324"></rect><rect fill="#2563EB" height="0.5433231941220278" width="1" x="18" y="0.4566768058779722"></rect><rect fill="#2563EB" height="0.5223599418735606" width="1" x="19" y="0.4776400581264394"></rect><rect fill="#2563EB" height="0.503915487989252" width="1" x="20" y="0.496084512010748"></rect><rect fill="#2563EB" height="0.46174539219253474" width="1" x="21" y="0.5382546078074653"></rect><rect fill="#2563EB" height="0.6244800624583239" width="1" x="22" y="0.3755199375416761"></rect><rect fill="#2563EB" height="0.5143247187692702" width="1" x="23" y="0.4856752812307298"></rect><rect fill="#2563EB" height="0.5001879453089467" width="1" x="24" y="0.4998120546910533"></rect><rect fill="#2563EB" height="0.5211696386414258" width="1" x="25" y="0.47883036135857415"></rect><rect fill="#2563EB" height="0.49746568856580436" width="1" x="26" y="0.5025343114341956"></rect><rect fill="#2563EB" height="0.48029636030100964" width="1" x="27" y="0.5197036396989904"></rect><rect fill="#2563EB" height="0.5001038761735515" width="1" x="28" y="0.49989612382644855"></rect><rect fill="#2563EB" height="0.6451339742741323" width="1" x="29" y="0.3548660257258677"></rect><rect fill="#2563EB" height="0.5592319285808198" width="1" x="30" y="0.4407680714191802"></rect><rect fill="#2563EB" height="0.5405497317920269" width="1" x="31" y="0.4594502682079731"></rect><rect fill="#2563EB" height="0.488475262666792" width="1" x="32" y="0.511524737333208"></rect><rect fill="#2563EB" height="0.46264254998704596" width="1" x="33" y="0.5373574500129541"></rect><rect fill="#2563EB" height="0.49786053431617194" width="1" x="34" y="0.5021394656838281"></rect><rect fill="#2563EB" height="0.5479290357431156" width="1" x="35" y="0.4520709642568844"></rect><rect fill="#2563EB" height="0.5886047006984123" width="1" x="36" y="0.4113952993015877"></rect><rect fill="#2563EB" height="0.6738967332997912" width="1" x="37" y="0.32610326670020884"></rect><rect fill="#2563EB" height="0.6143194255991332" width="1" x="38" y="0.3856805744008668"></rect><rect fill="#2563EB" height="0.5932048395465226" width="1" x="39" y="0.4067951604534774"></rect><rect fill="#2563EB" height="0.5419466643688343" width="1" x="40" y="0.4580533356311657"></rect><rect fill="#2563EB" height="0.5979891486640232" width="1" x="41" y="0.4020108513359768"></rect><rect fill="#2563EB" height="0.6217155798366157" width="1" x="42" y="0.37828442016338426"></rect><rect fill="#2563EB" height="0.614415056141486" width="1" x="43" y="0.38558494385851405"></rect><rect fill="#2563EB" height="0.5000659472796235" width="1" x="44" y="0.4999340527203765"></rect><rect fill="#2563EB" height="0.5425807927462317" width="1" x="45" y="0.4574192072537683"></rect><rect fill="#2563EB" height="0.5490795772911231" width="1" x="46" y="0.4509204227088769"></rect><rect fill="#2563EB" height="0.4911319588388346" width="1" x="47" y="0.5088680411611655"></rect><rect fill="#2563EB" height="0.6077207381348665" width="1" x="48" y="0.3922792618651335"></rect><rect fill="#2563EB" height="0.5344647578773112" width="1" x="49" y="0.4655352421226888"></rect><rect fill="#2563EB" height="0.5480709831089637" width="1" x="50" y="0.45192901689103626"></rect><rect fill="#2563EB" height="0.4987664446533029" width="1" x="51" y="0.5012335553466971"></rect><rect fill="#2563EB" height="0.7663572394324598" width="1" x="52" y="0.2336427605675402"></rect><rect fill="#2563EB" height="0.4887445774398946" width="1" x="53" y="0.5112554225601054"></rect><rect fill="#2563EB" height="0.5158675443340872" width="1" x="54" y="0.4841324556659128"></rect><rect fill="#2563EB" height="0.5011708763531479" width="1" x="55" y="0.49882912364685206"></rect><rect fill="#2563EB" height="0.5366096067242982" width="1" x="56" y="0.46339039327570175"></rect><rect fill="#2563EB" height="0.5223272569334376" width="1" x="57" y="0.4776727430665624"></rect><rect fill="#2563EB" height="0.5359501850898657" width="1" x="58" y="0.4640498149101343"></rect><rect fill="#2563EB" height="0.5741243523149705" width="1" x="59" y="0.4258756476850295"></rect><rect fill="#2563EB" height="0.5385316623239322" width="1" x="60" y="0.46146833767606776"></rect><rect fill="#2563EB" height="0.48783475756994304" width="1" x="61" y="0.5121652424300569"></rect><rect fill="#2563EB" height="0.4853345474948435" width="1" x="62" y="0.5146654525051565"></rect><rect fill="#2563EB" height="0.49513639398708575" width="1" x="63" y="0.5048636060129142"></rect><rect fill="#2563EB" height="0.5973271692598224" width="1" x="64" y="0.40267283074017757"></rect><rect fill="#2563EB" height="0.543730033729619" width="1" x="65" y="0.45626996627038097"></rect><rect fill="#2563EB" height="0.5612781187748205" width="1" x="66" y="0.4387218812251795"></rect><rect fill="#2563EB" height="0.6577732644572105" width="1" x="67" y="0.3422267355427895"></rect><rect fill="#2563EB" height="0.5003683608931452" width="1" x="68" y="0.4996316391068548"></rect><rect fill="#2563EB" height="0.852228623347246" width="1" x="69" y="0.14777137665275397"></rect><rect fill="#2563EB" height="0.5018205906757149" width="1" x="70" y="0.49817940932428506"></rect><rect fill="#2563EB" height="0.5886619505465329" width="1" x="71" y="0.4113380494534671"></rect><rect fill="#2563EB" height="0.6259590643639711" width="1" x="72" y="0.3740409356360289"></rect><rect fill="#2563EB" height="0.5584539148398594" width="1" x="73" y="0.4415460851601406"></rect><rect fill="#2563EB" height="0.5045090125092565" width="1" x="74" y="0.4954909874907435"></rect><rect fill="#2563EB" height="0.556940471314516" width="1" x="75" y="0.44305952868548404"></rect><rect fill="#2563EB" height="0.5129634654001242" width="1" x="76" y="0.48703653459987584"></rect><rect fill="#2563EB" height="0.5169156593973597" width="1" x="77" y="0.48308434060264027"></rect><rect fill="#2563EB" height="0.8938087007121696" width="1" x="78" y="0.10619129928783044"></rect><rect fill="#2563EB" height="0.6532653275298584" width="1" x="79" y="0.34673467247014156"></rect><rect fill="#2563EB" height="0.49894199738040634" width="1" x="80" y="0.5010580026195937"></rect><rect fill="#2563EB" height="0.5392384166580275" width="1" x="81" y="0.4607615833419725"></rect><rect fill="#2563EB" height="0.5229623645597526" width="1" x="82" y="0.47703763544024735"></rect><rect fill="#2563EB" height="1" width="1" x="83" y="0"></rect><rect fill="#2563EB" height="0.5418571323601123" width="1" x="84" y="0.45814286763988765"></rect><rect fill="#2563EB" height="0.49838648742069686" width="1" x="85" y="0.5016135125793031"></rect><rect fill="#2563EB" height="0.5017472763099635" width="1" x="86" y="0.4982527236900365"></rect><rect fill="#2563EB" height="0.6487494925811288" width="1" x="87" y="0.3512505074188712"></rect><rect fill="#2563EB" height="0.6021248094673083" width="1" x="88" y="0.3978751905326917"></rect><rect fill="#2563EB" height="0.5342267500170356" width="1" x="89" y="0.46577324998296443"></rect><rect fill="#2563EB" height="0.5581080807220993" width="1" x="90" y="0.4418919192779007"></rect><rect fill="#2563EB" height="0.5061233181317965" width="1" x="91" y="0.49387668186820355"></rect><rect fill="#2563EB" height="0.12964873494093224" width="1" x="92" y="0.8703512650590678"></rect><rect fill="#2563EB" height="0.0011140706627492736" width="1" x="93" y="0.9988859293372507"></rect><rect fill="#2563EB" height="0.0001073780672160895" width="1" x="94" y="0.9998926219327839"></rect><rect fill="#2563EB" height="0.0000021344654381786353" width="1" x="95" y="0.9999978655345618"></rect><rect fill="#2563EB" height="0" width="1" x="96" y="1"></rect><rect fill="#2563EB" height="0" width="1" x="97" y="1"></rect><rect fill="#2563EB" height="0" width="1" x="98" y="1"></rect><rect fill="#2563EB" height="0" width="1" x="99" y="1"></rect></svg>