<svg xmlns="http://www.w3.org/2000/svg" preserveAspectRatio="none" viewBox="0 0 100 1"><rect fill="#2563EB" height="0.05545276396623954" width="1" x="0" y="0.9445472360337605"></rect><rect fill="#2563EB" height="0.1538405861679373" width="1" x="1" y="0.8461594138320627"></rect><rect fill="#2563EB" height="0.18279667236115268" width="1" x="2" y="0.8172033276388473"></rect><rect fill="#2563EB" height="0.16811546064394456" width="1" x="3" y="0.8318845393560554"></rect><rect fill="#2563EB" height="0.20253410251634102" width="1" x="4" y="0.797465897483659"></rect><rect fill="#2563EB" height="0.21106998259356247" width="1" x="5" y="0.7889300174064375"></rect><rect fill="#2563EB" height="0.2708937152382426" width="1" x="6" y="0.7291062847617573"></rect><rect fill="#2563EB" height="0.2877268872090549" width="1" x="7" y="0.7122731127909451"></rect><rect fill="#2563EB" height="0.32774191281722337" width="1" x="8" y="0.6722580871827766"></rect><rect fill="#2563EB" height="0.4237527168864816" width="1" x="9" y="0.5762472831135184"></rect><rect fill="#2563EB" height="0.7392124597906589" width="1" x="10" y="0.26078754020934114"></rect><rect fill="#2563EB" height="0.6322566040268703" width="1" x="11" y="0.36774339597312966"></rect><rect fill="#2563EB" height="0.6363763875965583" width="1" x="12" y="0.36362361240344165"></rect><rect fill="#2563EB" height="0.7397532109908004" width="1" x="13" y="0.2602467890091996"></rect><rect fill="#2563EB" height="0.6514094813428462" width="1" x="14" y="0.34859051865715385"></rect><rect fill="#2563EB" height="0.6094831328210474" width="1" x="15" y="0.3905168671789526"></rect><rect fill="#2563EB" height="0.5847813770497257" width="1" x="16" y="0.41521862295027434"></rect><rect fill="#2563EB" height="0.6142598995994438" width="1" x="17" y="0.3857401004005562"></rect><rect fill="#2563EB" height="0.7641275415492456" width="1" x="18" y="0.23587245845075444"></rect><rect fill="#2563EB" height="0.6598354459970779" width="1" x="19" y="0.3401645540029221"></rect><rect fill="#2563EB" height="0.6413600165059754" width="1" x="20" y="0.3586399834940246"></rect><rect fill="#2563EB" height="0.62229357714409" width="1" x="21" y="0.37770642285591005"></rect><rect fill="#2563EB" height="0.7059130997184208" width="1" x="22" y="0.29408690028157924"></rect><rect fill="#2563EB" height="0.7141296209928977" width="1" x="23" y="0.2858703790071023"></rect><rect fill="#2563EB" height="0.6391637153210236" width="1" x="24" y="0.36083628467897644"></rect><rect fill="#2563EB" height="0.7235226701315027" width="1" x="25" y="0.27647732986849727"></rect><rect fill="#2563EB" height="0.6292233809033078" width="1" x="26" y="0.37077661909669224"></rect><rect fill="#2563EB" height="0.8349196384755196" width="1" x="27" y="0.16508036152448036"></rect><rect fill="#2563EB" height="0.872288852904929" width="1" x="28" y="0.12771114709507103"></rect><rect fill="#2563EB" height="0.5921296714601163" width="1" x="29" y="0.4078703285398837"></rect><rect fill="#2563EB" height="0.6438575177807919" width="1" x="30" y="0.3561424822192081"></rect><rect fill="#2563EB" height="0.6405310260106072" width="1" x="31" y="0.3594689739893928"></rect><rect fill="#2563EB" height="0.6296585457682942" width="1" x="32" y="0.37034145423170584"></rect><rect fill="#2563EB" height="0.7245170217739306" width="1" x="33" y="0.2754829782260694"></rect><rect fill="#2563EB" height="0.755362364153696" width="1" x="34" y="0.24463763584630405"></rect><rect fill="#2563EB" height="0.8715981257323266" width="1" x="35" y="0.12840187426767335"></rect><rect fill="#2563EB" height="0.8619680880823478" width="1" x="36" y="0.13803191191765218"></rect><rect fill="#2563EB" height="0.7201347449992811" width="1" x="37" y="0.2798652550007189"></rect><rect fill="#2563EB" height="0.6853380522485011" width="1" x="38" y="0.3146619477514989"></rect><rect fill="#2563EB" height="0.6618393442058326" width="1" x="39" y="0.33816065579416743"></rect><rect fill="#2563EB" height="0.6802034475903077" width="1" x="40" y="0.3197965524096923"></rect><rect fill="#2563EB" height="0.661172736165768" width="1" x="41" y="0.338827263834232"></rect><rect fill="#2563EB" height="0.6061549757051741" width="1" x="42" y="0.39384502429482593"></rect><rect fill="#2563EB" height="0.7692670752240334" width="1" x="43" y="0.23073292477596663"></rect><rect fill="#2563EB" height="0.8493718732973445" width="1" x="44" y="0.15062812670265546"></rect><rect fill="#2563EB" height="0.8402163458634845" width="1" x="45" y="0.15978365413651552"></rect><rect fill="#2563EB" height="0.770461991166288" width="1" x="46" y="0.229538008833712"></rect><rect fill="#2563EB" height="0.8278973911751462" width="1" x="47" y="0.17210260882485384"></rect><rect fill="#2563EB" height="0.8439603728234618" width="1" x="48" y="0.1560396271765382"></rect><rect fill="#2563EB" height="0.8590800816163309" width="1" x="49" y="0.14091991838366913"></rect><rect fill="#2563EB" height="0.8366594601896696" width="1" x="50" y="0.16334053981033037"></rect><rect fill="#2563EB" height="0.8659953377587581" width="1" x="51" y="0.13400466224124186"></rect><rect fill="#2563EB" height="0.8212836531597719" width="1" x="52" y="0.17871634684022808"></rect><rect fill="#2563EB" height="0.8907973437110157" width="1" x="53" y="0.10920265628898429"></rect><rect fill="#2563EB" height="0.841813095525861" width="1" x="54" y="0.15818690447413897"></rect><rect fill="#2563EB" height="0.8554070482441499" width="1" x="55" y="0.14459295175585007"></rect><rect fill="#2563EB" height="0.9076027782138021" width="1" x="56" y="0.09239722178619791"></rect><rect fill="#2563EB" height="0.8505908744112824" width="1" x="57" y="0.14940912558871755"></rect><rect fill="#2563EB" height="0.8930870872715451" width="1" x="58" y="0.10691291272845493"></rect><rect fill="#2563EB" height="0.8130846164857408" width="1" x="59" y="0.18691538351425918"></rect><rect fill="#2563EB" height="0.9183418799657936" width="1" x="60" y="0.08165812003420636"></rect><rect fill="#2563EB" height="0.8397964921761036" width="1" x="61" y="0.16020350782389636"></rect><rect fill="#2563EB" height="0.8166707488051206" width="1" x="62" y="0.18332925119487942"></rect><rect fill="#2563EB" height="0.8537776567402487" width="1" x="63" y="0.14622234325975125"></rect><rect fill="#2563EB" height="0.9355434404759013" width="1" x="64" y="0.06445655952409868"></rect><rect fill="#2563EB" height="0.9232931239222438" width="1" x="65" y="0.07670687607775617"></rect><rect fill="#2563EB" height="0.8432892604976354" width="1" x="66" y="0.15671073950236458"></rect><rect fill="#2563EB" height="0.7315733648498323" width="1" x="67" y="0.26842663515016774"></rect><rect fill="#2563EB" height="0.8194536634827064" width="1" x="68" y="0.18054633651729357"></rect><rect fill="#2563EB" height="0.8301492725242698" width="1" x="69" y="0.16985072747573016"></rect><rect fill="#2563EB" height="0.8207228349899853" width="1" x="70" y="0.17927716501001467"></rect><rect fill="#2563EB" height="0.8970039797107322" width="1" x="71" y="0.1029960202892678"></rect><rect fill="#2563EB" height="0.9626510061020402" width="1" x="72" y="0.03734899389795976"></rect><rect fill="#2563EB" height="0.9606358550830645" width="1" x="73" y="0.03936414491693552"></rect><rect fill="#2563EB" height="0.8848069698474904" width="1" x="74" y="0.11519303015250959"></rect><rect fill="#2563EB" height="0.8426076614370944" width="1" x="75" y="0.15739233856290558"></rect><rect fill="#2563EB" height="0.708663867442075" width="1" x="76" y="0.291336132557925"></rect><rect fill="#2563EB" height="0.8195295995747461" width="1" x="77" y="0.18047040042525386"></rect><rect fill="#2563EB" height="0.8385893430058223" width="1" x="78" y="0.16141065699417767"></rect><rect fill="#2563EB" height="0.8070879837411472" width="1" x="79" y="0.1929120162588528"></rect><rect fill="#2563EB" height="0.7843213230685602" width="1" x="80" y="0.21567867693143983"></rect><rect fill="#2563EB" height="0.9552330794084485" width="1" x="81" y="0.04476692059155152"></rect><rect fill="#2563EB" height="1" width="1" x="82" y="0"></rect><rect fill="#2563EB" height="0.9268318246196079" width="1" x="83" y="0.07316817538039211"></rect><rect fill="#2563EB" height="0.8902865704533977" width="1" x="84" y="0.10971342954660235"></rect><rect fill="#2563EB" height="0.8758457539137688" width="1" x="85" y="0.12415424608623116"></rect><rect fill="#2563EB" height="0.9239314983854279" width="1" x="86" y="0.07606850161457213"></rect><rect fill="#2563EB" height="0.8503249948282185" width="1" x="87" y="0.14967500517178145"></rect><rect fill="#2563EB" height="0.9030268114320544" width="1" x="88" y="0.09697318856794557"></rect><rect fill="#2563EB" height="0.849913141989873" width="1" x="89" y="0.150086858010127"></rect><rect fill="#2563EB" height="0.9039921693740507" width="1" x="90" y="0.09600783062594931"></rect><rect fill="#2563EB" height="0.9511319942287622" width="1" x="91" y="0.048868005771237844"></rect><rect fill="#2563EB" height="0.5957608549287282" width="1" x="92" y="0.4042391450712718"></rect><rect fill="#2563EB" height="0.11426706376613735" width="1" x="93" y="0.8857329362338626"></rect><rect fill="#2563EB" height="0.04041026693426356" width="1" x="94" y="0.9595897330657365"></rect><rect fill="#2563EB" height="0.01696946316427817" width="1" x="95" y="0.9830305368357218"></rect><rect fill="#2563EB" height="0.007531588993444312" width="1" x="96" y="0.9924684110065557"></rect><rect fill="#2563EB" height="0.0032185388280995516" width="1" x="97" y="0.9967814611719005"></rect><rect fill="#2563EB" height="0.001184232556741846" width="1" x="98" y="0.9988157674432582"></rect><rect fill="#2563EB" height="0.0002799843640477201" width="1" x="99" y="0.9997200156359523"></rect></svg>