<svg xmlns="http://www.w3.org/2000/svg" preserveAspectRatio="none" viewBox="0 0 100 1"><rect fill="#2563EB" height="0.8949411972645193" width="1" x="0" y="0.10505880273548074"></rect><rect fill="#2563EB" height="0.5274619465259778" width="1" x="1" y="0.4725380534740222"></rect><rect fill="#2563EB" height="0.554475951059806" width="1" x="2" y="0.44552404894019404"></rect><rect fill="#2563EB" height="0.4294573966123851" width="1" x="3" y="0.5705426033876149"></rect><rect fill="#2563EB" height="0.41540199794318483" width="1" x="4" y="0.5845980020568151"></rect><rect fill="#2563EB" height="0.4732872191372048" width="1" x="5" y="0.5267127808627952"></rect><rect fill="#2563EB" height="0.9502222459622668" width="1" x="6" y="0.04977775403773321"></rect><rect fill="#2563EB" height="0.8872904753745834" width="1" x="7" y="0.11270952462541661"></rect><rect fill="#2563EB" height="0.6494370761782742" width="1" x="8" y="0.3505629238217258"></rect><rect fill="#2563EB" height="0.5404515435224146" width="1" x="9" y="0.45954845647758535"></rect><rect fill="#2563EB" height="0.42101374565449395" width="1" x="10" y="0.578986254345506"></rect><rect fill="#2563EB" height="0.3672653769958479" width="1" x="11" y="0.6327346230041522"></rect><rect fill="#2563EB" height="0.7884126618672379" width="1" x="12" y="0.2115873381327621"></rect><rect fill="#2563EB" height="0.8179642945692722" width="1" x="13" y="0.18203570543072778"></rect><rect fill="#2563EB" height="0.7114491436119785" width="1" x="14" y="0.28855085638802147"></rect><rect fill="#2563EB" height="0.7517878398078227" width="1" x="15" y="0.2482121601921773"></rect><rect fill="#2563EB" height="0.5506444573598174" width="1" x="16" y="0.4493555426401826"></rect><rect fill="#2563EB" height="0.5653722095133665" width="1" x="17" y="0.43462779048663347"></rect><rect fill="#2563EB" height="0.5881311442604391" width="1" x="18" y="0.4118688557395609"></rect><rect fill="#2563EB" height="0.6732941676156665" width="1" x="19" y="0.3267058323843335"></rect><rect fill="#2563EB" height="0.3953880693499639" width="1" x="20" y="0.6046119306500362"></rect><rect fill="#2563EB" height="0.41737298376609405" width="1" x="21" y="0.582627016233906"></rect><rect fill="#2563EB" height="0.2926671401807727" width="1" x="22" y="0.7073328598192272"></rect><rect fill="#2563EB" height="0.3799419461834737" width="1" x="23" y="0.6200580538165263"></rect><rect fill="#2563EB" height="0.48525464192080686" width="1" x="24" y="0.5147453580791932"></rect><rect fill="#2563EB" height="0.9716173508383268" width="1" x="25" y="0.028382649161673212"></rect><rect fill="#2563EB" height="0.9355542696695583" width="1" x="26" y="0.06444573033044165"></rect><rect fill="#2563EB" height="0.6750846108268782" width="1" x="27" y="0.3249153891731218"></rect><rect fill="#2563EB" height="0.7281710169182176" width="1" x="28" y="0.2718289830817824"></rect><rect fill="#2563EB" height="0.807807965754993" width="1" x="29" y="0.19219203424500697"></rect><rect fill="#2563EB" height="1" width="1" x="30" y="0"></rect><rect fill="#2563EB" height="0.7684991799764012" width="1" x="31" y="0.23150082002359884"></rect><rect fill="#2563EB" height="0.6705557995213183" width="1" x="32" y="0.3294442004786817"></rect><rect fill="#2563EB" height="0.4416002933493771" width="1" x="33" y="0.5583997066506229"></rect><rect fill="#2563EB" height="0.29311074477393717" width="1" x="34" y="0.7068892552260628"></rect><rect fill="#2563EB" height="0.3738704232167294" width="1" x="35" y="0.6261295767832706"></rect><rect fill="#2563EB" height="0.500015651069048" width="1" x="36" y="0.499984348930952"></rect><rect fill="#2563EB" height="0.8260871837622368" width="1" x="37" y="0.17391281623776322"></rect><rect fill="#2563EB" height="0.5101115912174305" width="1" x="38" y="0.48988840878256945"></rect><rect fill="#2563EB" height="0.5000890017452229" width="1" x="39" y="0.49991099825477714"></rect><rect fill="#2563EB" height="0.9361031934863452" width="1" x="40" y="0.06389680651365481"></rect><rect fill="#2563EB" height="0.6291985383222375" width="1" x="41" y="0.3708014616777625"></rect><rect fill="#2563EB" height="0.610717468325831" width="1" x="42" y="0.38928253167416904"></rect><rect fill="#2563EB" height="0.8100034300644859" width="1" x="43" y="0.18999656993551406"></rect><rect fill="#2563EB" height="0.7009980061920682" width="1" x="44" y="0.2990019938079318"></rect><rect fill="#2563EB" height="0.6009462965550302" width="1" x="45" y="0.3990537034449698"></rect><rect fill="#2563EB" height="0.8565258361651658" width="1" x="46" y="0.14347416383483425"></rect><rect fill="#2563EB" height="0.5013339448546947" width="1" x="47" y="0.49866605514530526"></rect><rect fill="#2563EB" height="0.7465209754747805" width="1" x="48" y="0.25347902452521953"></rect><rect fill="#2563EB" height="0.4950274747238505" width="1" x="49" y="0.5049725252761494"></rect><rect fill="#2563EB" height="0.9996608673945098" width="1" x="50" y="0.0003391326054902333"></rect><rect fill="#2563EB" height="0.6040409769650017" width="1" x="51" y="0.3959590230349983"></rect><rect fill="#2563EB" height="0.768882748976268" width="1" x="52" y="0.23111725102373204"></rect><rect fill="#2563EB" height="0.4747108337111705" width="1" x="53" y="0.5252891662888295"></rect><rect fill="#2563EB" height="0.4443144482677802" width="1" x="54" y="0.5556855517322198"></rect><rect fill="#2563EB" height="0.3927526127800908" width="1" x="55" y="0.6072473872199091"></rect><rect fill="#2563EB" height="0.8185989012014984" width="1" x="56" y="0.18140109879850164"></rect><rect fill="#2563EB" height="0.938168003767349" width="1" x="57" y="0.06183199623265101"></rect><rect fill="#2563EB" height="0.7291845680157687" width="1" x="58" y="0.2708154319842313"></rect><rect fill="#2563EB" height="0.8851037107391079" width="1" x="59" y="0.11489628926089213"></rect><rect fill="#2563EB" height="0.5794974410737204" width="1" x="60" y="0.42050255892627963"></rect><rect fill="#2563EB" height="0.5262033158136424" width="1" x="61" y="0.47379668418635756"></rect><rect fill="#2563EB" height="0.700692161573992" width="1" x="62" y="0.29930783842600805"></rect><rect fill="#2563EB" height="0.584469092542746" width="1" x="63" y="0.41553090745725396"></rect><rect fill="#2563EB" height="0.7655078726122219" width="1" x="64" y="0.23449212738777814"></rect><rect fill="#2563EB" height="0.5564223647853844" width="1" x="65" y="0.4435776352146156"></rect><rect fill="#2563EB" height="0.6664433474865756" width="1" x="66" y="0.33355665251342437"></rect><rect fill="#2563EB" height="0.5365188244398261" width="1" x="67" y="0.4634811755601739"></rect><rect fill="#2563EB" height="0.6610646028945155" width="1" x="68" y="0.3389353971054845"></rect><rect fill="#2563EB" height="0.7890551897765086" width="1" x="69" y="0.21094481022349143"></rect><rect fill="#2563EB" height="0.6313432857499935" width="1" x="70" y="0.36865671425000646"></rect><rect fill="#2563EB" height="0.9273896927202545" width="1" x="71" y="0.07261030727974549"></rect><rect fill="#2563EB" height="0.3400297596442562" width="1" x="72" y="0.6599702403557438"></rect><rect fill="#2563EB" height="0.46533761011745844" width="1" x="73" y="0.5346623898825416"></rect><rect fill="#2563EB" height="0.45062044780454963" width="1" x="74" y="0.5493795521954503"></rect><rect fill="#2563EB" height="0.9013652032085308" width="1" x="75" y="0.09863479679146925"></rect><rect fill="#2563EB" height="0.5902176376582764" width="1" x="76" y="0.4097823623417236"></rect><rect fill="#2563EB" height="0.7754744357302364" width="1" x="77" y="0.22452556426976356"></rect><rect fill="#2563EB" height="0.4610743254078429" width="1" x="78" y="0.5389256745921571"></rect><rect fill="#2563EB" height="0.4544864501623006" width="1" x="79" y="0.5455135498376994"></rect><rect fill="#2563EB" height="0.3870253345946266" width="1" x="80" y="0.6129746654053734"></rect><rect fill="#2563EB" height="0.8670613789821036" width="1" x="81" y="0.13293862101789644"></rect><rect fill="#2563EB" height="0.9272413091631715" width="1" x="82" y="0.07275869083682851"></rect><rect fill="#2563EB" height="0.7468728449176495" width="1" x="83" y="0.2531271550823505"></rect><rect fill="#2563EB" height="0.877534348547914" width="1" x="84" y="0.12246565145208599"></rect><rect fill="#2563EB" height="0.5760930274979474" width="1" x="85" y="0.42390697250205256"></rect><rect fill="#2563EB" height="0.5514990517071092" width="1" x="86" y="0.4485009482928908"></rect><rect fill="#2563EB" height="0.8091308619070939" width="1" x="87" y="0.19086913809290607"></rect><rect fill="#2563EB" height="0.5808078397922574" width="1" x="88" y="0.41919216020774264"></rect><rect fill="#2563EB" height="0.7174951765129552" width="1" x="89" y="0.28250482348704475"></rect><rect fill="#2563EB" height="0.5839704626755325" width="1" x="90" y="0.41602953732446746"></rect><rect fill="#2563EB" height="0.663733857670158" width="1" x="91" y="0.336266142329842"></rect><rect fill="#2563EB" height="0.5133152426813323" width="1" x="92" y="0.48668475731866767"></rect><rect fill="#2563EB" height="0.42497031872097674" width="1" x="93" y="0.5750296812790232"></rect><rect fill="#2563EB" height="0.5663789263165003" width="1" x="94" y="0.43362107368349967"></rect><rect fill="#2563EB" height="0.5807105445998102" width="1" x="95" y="0.4192894554001898"></rect><rect fill="#2563EB" height="0.9051275625042235" width="1" x="96" y="0.09487243749577645"></rect><rect fill="#2563EB" height="0.2979744891992536" width="1" x="97" y="0.7020255108007464"></rect><rect fill="#2563EB" height="0.1993606430334179" width="1" x="98" y="0.8006393569665821"></rect><rect fill="#2563EB" height="0.018806961183048424" width="1" x="99" y="0.9811930388169515"></rect></svg>