<svg xmlns="http://www.w3.org/2000/svg" preserveAspectRatio="none" viewBox="0 0 100 1"><rect fill="#2563EB" height="0.891102939588208" width="1" x="0" y="0.10889706041179203"></rect><rect fill="#2563EB" height="0.9607614414213277" width="1" x="1" y="0.03923855857867231"></rect><rect fill="#2563EB" height="0.8023144080587092" width="1" x="2" y="0.19768559194129076"></rect><rect fill="#2563EB" height="0.8038324249118083" width="1" x="3" y="0.19616757508819171"></rect><rect fill="#2563EB" height="0.7496774257102605" width="1" x="4" y="0.2503225742897395"></rect><rect fill="#2563EB" height="0.725966695435382" width="1" x="5" y="0.27403330456461805"></rect><rect fill="#2563EB" height="0.8447755146693012" width="1" x="6" y="0.15522448533069877"></rect><rect fill="#2563EB" height="0.8153018645579743" width="1" x="7" y="0.18469813544202573"></rect><rect fill="#2563EB" height="0.6733458359654115" width="1" x="8" y="0.32665416403458847"></rect><rect fill="#2563EB" height="0.7971877366235328" width="1" x="9" y="0.20281226337646718"></rect><rect fill="#2563EB" height="0.6968859219825086" width="1" x="10" y="0.30311407801749135"></rect><rect fill="#2563EB" height="0.830431727961163" width="1" x="11" y="0.16956827203883695"></rect><rect fill="#2563EB" height="0.9066687687717913" width="1" x="12" y="0.09333123122820874"></rect><rect fill="#2563EB" height="0.9113206331305795" width="1" x="13" y="0.08867936686942046"></rect><rect fill="#2563EB" height="0.9781049901593448" width="1" x="14" y="0.021895009840655177"></rect><rect fill="#2563EB" height="0.7308286360915599" width="1" x="15" y="0.2691713639084401"></rect><rect fill="#2563EB" height="0.8149498854253131" width="1" x="16" y="0.1850501145746869"></rect><rect fill="#2563EB" height="0.916028757265634" width="1" x="17" y="0.08397124273436596"></rect><rect fill="#2563EB" height="0.8007603322077108" width="1" x="18" y="0.1992396677922892"></rect><rect fill="#2563EB" height="0.7851187256552405" width="1" x="19" y="0.21488127434475945"></rect><rect fill="#2563EB" height="0.8248316573728368" width="1" x="20" y="0.1751683426271632"></rect><rect fill="#2563EB" height="0.7459282882218307" width="1" x="21" y="0.25407171177816934"></rect><rect fill="#2563EB" height="0.8156540315309275" width="1" x="22" y="0.18434596846907247"></rect><rect fill="#2563EB" height="0.8310947332714317" width="1" x="23" y="0.16890526672856832"></rect><rect fill="#2563EB" height="0.7368458699149232" width="1" x="24" y="0.2631541300850768"></rect><rect fill="#2563EB" height="0.8004093105350685" width="1" x="25" y="0.19959068946493153"></rect><rect fill="#2563EB" height="0.7778723677358812" width="1" x="26" y="0.2221276322641188"></rect><rect fill="#2563EB" height="0.7641875300115689" width="1" x="27" y="0.23581246998843108"></rect><rect fill="#2563EB" height="0.6198177444109495" width="1" x="28" y="0.3801822555890505"></rect><rect fill="#2563EB" height="0.6925113352910366" width="1" x="29" y="0.3074886647089634"></rect><rect fill="#2563EB" height="0.9370696302731004" width="1" x="30" y="0.06293036972689958"></rect><rect fill="#2563EB" height="0.8543980469579938" width="1" x="31" y="0.14560195304200618"></rect><rect fill="#2563EB" height="0.7971987667755087" width="1" x="32" y="0.20280123322449128"></rect><rect fill="#2563EB" height="0.5238797296115981" width="1" x="33" y="0.4761202703884019"></rect><rect fill="#2563EB" height="0.621030158562409" width="1" x="34" y="0.37896984143759105"></rect><rect fill="#2563EB" height="0.782034315792583" width="1" x="35" y="0.21796568420741702"></rect><rect fill="#2563EB" height="0.8286074091607986" width="1" x="36" y="0.17139259083920144"></rect><rect fill="#2563EB" height="0.937174840657487" width="1" x="37" y="0.06282515934251298"></rect><rect fill="#2563EB" height="0.8634518352664373" width="1" x="38" y="0.13654816473356268"></rect><rect fill="#2563EB" height="0.7269437062630305" width="1" x="39" y="0.2730562937369695"></rect><rect fill="#2563EB" height="0.7330254050584438" width="1" x="40" y="0.2669745949415562"></rect><rect fill="#2563EB" height="0.9092045426116065" width="1" x="41" y="0.09079545738839345"></rect><rect fill="#2563EB" height="0.8079402862764178" width="1" x="42" y="0.19205971372358221"></rect><rect fill="#2563EB" height="0.8924642093882821" width="1" x="43" y="0.10753579061171792"></rect><rect fill="#2563EB" height="0.8242779180481102" width="1" x="44" y="0.17572208195188976"></rect><rect fill="#2563EB" height="0.6912700594714801" width="1" x="45" y="0.3087299405285199"></rect><rect fill="#2563EB" height="0.7819022363003726" width="1" x="46" y="0.2180977636996274"></rect><rect fill="#2563EB" height="0.8849858120079456" width="1" x="47" y="0.11501418799205443"></rect><rect fill="#2563EB" height="0.7929052399608127" width="1" x="48" y="0.20709476003918725"></rect><rect fill="#2563EB" height="0.9095899303668706" width="1" x="49" y="0.09041006963312936"></rect><rect fill="#2563EB" height="0.8250843464951957" width="1" x="50" y="0.1749156535048043"></rect><rect fill="#2563EB" height="0.7281401760569246" width="1" x="51" y="0.2718598239430754"></rect><rect fill="#2563EB" height="0.728936350361128" width="1" x="52" y="0.271063649638872"></rect><rect fill="#2563EB" height="0.859607058474289" width="1" x="53" y="0.14039294152571102"></rect><rect fill="#2563EB" height="0.7652818612762049" width="1" x="54" y="0.2347181387237951"></rect><rect fill="#2563EB" height="0.8058849085495744" width="1" x="55" y="0.1941150914504256"></rect><rect fill="#2563EB" height="0.7528764303381801" width="1" x="56" y="0.24712356966181992"></rect><rect fill="#2563EB" height="0.6335889039289966" width="1" x="57" y="0.3664110960710034"></rect><rect fill="#2563EB" height="0.6387444031334646" width="1" x="58" y="0.3612555968665354"></rect><rect fill="#2563EB" height="0.8359559860452568" width="1" x="59" y="0.16404401395474322"></rect><rect fill="#2563EB" height="0.64128442602286" width="1" x="60" y="0.35871557397714005"></rect><rect fill="#2563EB" height="0.7329025238697019" width="1" x="61" y="0.2670974761302981"></rect><rect fill="#2563EB" height="0.8974180529238052" width="1" x="62" y="0.10258194707619483"></rect><rect fill="#2563EB" height="0.6028920222684189" width="1" x="63" y="0.39710797773158113"></rect><rect fill="#2563EB" height="0.8003603206191049" width="1" x="64" y="0.1996396793808951"></rect><rect fill="#2563EB" height="0.854291271288807" width="1" x="65" y="0.145708728711193"></rect><rect fill="#2563EB" height="0.7232968902209077" width="1" x="66" y="0.2767031097790923"></rect><rect fill="#2563EB" height="0.5811444770258621" width="1" x="67" y="0.41885552297413786"></rect><rect fill="#2563EB" height="0.65358913443308" width="1" x="68" y="0.34641086556692"></rect><rect fill="#2563EB" height="0.6259974854675151" width="1" x="69" y="0.3740025145324849"></rect><rect fill="#2563EB" height="0.6457342753400799" width="1" x="70" y="0.3542657246599201"></rect><rect fill="#2563EB" height="0.8220421923379341" width="1" x="71" y="0.17795780766206593"></rect><rect fill="#2563EB" height="0.7474277590513061" width="1" x="72" y="0.2525722409486939"></rect><rect fill="#2563EB" height="0.8859290263498885" width="1" x="73" y="0.11407097365011154"></rect><rect fill="#2563EB" height="0.8722935193426845" width="1" x="74" y="0.1277064806573155"></rect><rect fill="#2563EB" height="0.7662845533062179" width="1" x="75" y="0.23371544669378208"></rect><rect fill="#2563EB" height="0.6559821595970355" width="1" x="76" y="0.34401784040296446"></rect><rect fill="#2563EB" height="0.7457573757332436" width="1" x="77" y="0.25424262426675637"></rect><rect fill="#2563EB" height="1" width="1" x="78" y="0"></rect><rect fill="#2563EB" height="0.9517841204737734" width="1" x="79" y="0.048215879526226635"></rect><rect fill="#2563EB" height="0.8451526125363947" width="1" x="80" y="0.15484738746360527"></rect><rect fill="#2563EB" height="0.7011509605022187" width="1" x="81" y="0.2988490394977813"></rect><rect fill="#2563EB" height="0.7741546602368407" width="1" x="82" y="0.22584533976315935"></rect><rect fill="#2563EB" height="0.7453487961986878" width="1" x="83" y="0.25465120380131223"></rect><rect fill="#2563EB" height="0.6438259966226751" width="1" x="84" y="0.35617400337732485"></rect><rect fill="#2563EB" height="0.6661161221976936" width="1" x="85" y="0.33388387780230644"></rect><rect fill="#2563EB" height="0.7643636929099829" width="1" x="86" y="0.23563630709001715"></rect><rect fill="#2563EB" height="0.7184726999261594" width="1" x="87" y="0.28152730007384064"></rect><rect fill="#2563EB" height="0.6901792404647731" width="1" x="88" y="0.3098207595352269"></rect><rect fill="#2563EB" height="0.7882570577534397" width="1" x="89" y="0.21174294224656032"></rect><rect fill="#2563EB" height="0.774171375968024" width="1" x="90" y="0.225828624031976"></rect><rect fill="#2563EB" height="0.7484160440938125" width="1" x="91" y="0.25158395590618754"></rect><rect fill="#2563EB" height="0.6014505121250601" width="1" x="92" y="0.39854948787493993"></rect><rect fill="#2563EB" height="0.6243915581734821" width="1" x="93" y="0.37560844182651787"></rect><rect fill="#2563EB" height="0.6798183783720941" width="1" x="94" y="0.32018162162790587"></rect><rect fill="#2563EB" height="0.9714869959421335" width="1" x="95" y="0.028513004057866498"></rect><rect fill="#2563EB" height="0.44391711542195805" width="1" x="96" y="0.5560828845780419"></rect><rect fill="#2563EB" height="0.003985264727693731" width="1" x="97" y="0.9960147352723062"></rect><rect fill="#2563EB" height="0.0000012571821011946827" width="1" x="98" y="0.9999987428178988"></rect><rect fill="#2563EB" height="0" width="1" x="99" y="1"></rect></svg>