<svg xmlns="http://www.w3.org/2000/svg" preserveAspectRatio="none" viewBox="0 0 100 1"><rect fill="#2563EB" height="0.14393252169073867" width="1" x="0" y="0.8560674783092613"></rect><rect fill="#2563EB" height="0.1304450545243219" width="1" x="1" y="0.8695549454756781"></rect><rect fill="#2563EB" height="0.17974892531300143" width="1" x="2" y="0.8202510746869985"></rect><rect fill="#2563EB" height="0.2165220700747145" width="1" x="3" y="0.7834779299252855"></rect><rect fill="#2563EB" height="0.40730041744250783" width="1" x="4" y="0.5926995825574921"></rect><rect fill="#2563EB" height="0.41072494200376397" width="1" x="5" y="0.589275057996236"></rect><rect fill="#2563EB" height="0.42464658741005523" width="1" x="6" y="0.5753534125899448"></rect><rect fill="#2563EB" height="0.4385157693120334" width="1" x="7" y="0.5614842306879666"></rect><rect fill="#2563EB" height="0.3807204761864455" width="1" x="8" y="0.6192795238135544"></rect><rect fill="#2563EB" height="0.7062797599376951" width="1" x="9" y="0.2937202400623049"></rect><rect fill="#2563EB" height="0.7071817606653263" width="1" x="10" y="0.29281823933467366"></rect><rect fill="#2563EB" height="0.5581089505310517" width="1" x="11" y="0.4418910494689483"></rect><rect fill="#2563EB" height="0.6892326982516581" width="1" x="12" y="0.3107673017483419"></rect><rect fill="#2563EB" height="0.8700110140970518" width="1" x="13" y="0.12998898590294816"></rect><rect fill="#2563EB" height="0.6798652573598124" width="1" x="14" y="0.3201347426401876"></rect><rect fill="#2563EB" height="0.6956796261350311" width="1" x="15" y="0.3043203738649689"></rect><rect fill="#2563EB" height="0.7933905063532255" width="1" x="16" y="0.2066094936467745"></rect><rect fill="#2563EB" height="0.6333374278944759" width="1" x="17" y="0.3666625721055241"></rect><rect fill="#2563EB" height="0.710539824191642" width="1" x="18" y="0.28946017580835803"></rect><rect fill="#2563EB" height="0.6638170970956865" width="1" x="19" y="0.3361829029043135"></rect><rect fill="#2563EB" height="0.7341894644574564" width="1" x="20" y="0.26581053554254364"></rect><rect fill="#2563EB" height="0.7742029528657951" width="1" x="21" y="0.2257970471342049"></rect><rect fill="#2563EB" height="0.8661002720187576" width="1" x="22" y="0.1338997279812424"></rect><rect fill="#2563EB" height="0.7849145860823203" width="1" x="23" y="0.21508541391767966"></rect><rect fill="#2563EB" height="0.788433090202898" width="1" x="24" y="0.21156690979710202"></rect><rect fill="#2563EB" height="0.8197575452970552" width="1" x="25" y="0.18024245470294475"></rect><rect fill="#2563EB" height="0.7742860240248388" width="1" x="26" y="0.22571397597516119"></rect><rect fill="#2563EB" height="0.8060860796249325" width="1" x="27" y="0.1939139203750675"></rect><rect fill="#2563EB" height="0.7843787525330645" width="1" x="28" y="0.21562124746693545"></rect><rect fill="#2563EB" height="0.7241514854063626" width="1" x="29" y="0.27584851459363735"></rect><rect fill="#2563EB" height="0.6812905414767608" width="1" x="30" y="0.3187094585232392"></rect><rect fill="#2563EB" height="0.6995049142790719" width="1" x="31" y="0.3004950857209281"></rect><rect fill="#2563EB" height="0.7003931778017132" width="1" x="32" y="0.2996068221982868"></rect><rect fill="#2563EB" height="0.6997133486175384" width="1" x="33" y="0.3002866513824616"></rect><rect fill="#2563EB" height="0.5552659591892307" width="1" x="34" y="0.4447340408107693"></rect><rect fill="#2563EB" height="0.7906738081230594" width="1" x="35" y="0.20932619187694057"></rect><rect fill="#2563EB" height="0.615787133729029" width="1" x="36" y="0.38421286627097095"></rect><rect fill="#2563EB" height="0.6831693735941233" width="1" x="37" y="0.31683062640587667"></rect><rect fill="#2563EB" height="0.6841217473392772" width="1" x="38" y="0.3158782526607228"></rect><rect fill="#2563EB" height="0.9168033958278836" width="1" x="39" y="0.08319660417211638"></rect><rect fill="#2563EB" height="0.7447224410335215" width="1" x="40" y="0.2552775589664785"></rect><rect fill="#2563EB" height="0.6555020013359527" width="1" x="41" y="0.3444979986640473"></rect><rect fill="#2563EB" height="0.8263101716770361" width="1" x="42" y="0.17368982832296387"></rect><rect fill="#2563EB" height="0.5327598783665398" width="1" x="43" y="0.4672401216334602"></rect><rect fill="#2563EB" height="1" width="1" x="44" y="0"></rect><rect fill="#2563EB" height="0.710836861683414" width="1" x="45" y="0.289163138316586"></rect><rect fill="#2563EB" height="0.6973416993689998" width="1" x="46" y="0.3026583006310002"></rect><rect fill="#2563EB" height="0.7268335036919321" width="1" x="47" y="0.2731664963080679"></rect><rect fill="#2563EB" height="0.92417988552606" width="1" x="48" y="0.07582011447393999"></rect><rect fill="#2563EB" height="0.6781183159378177" width="1" x="49" y="0.3218816840621823"></rect><rect fill="#2563EB" height="0.7176705878705962" width="1" x="50" y="0.28232941212940377"></rect><rect fill="#2563EB" height="0.6856094049517526" width="1" x="51" y="0.3143905950482474"></rect><rect fill="#2563EB" height="0.6100136758572383" width="1" x="52" y="0.3899863241427617"></rect><rect fill="#2563EB" height="0.8266165163396763" width="1" x="53" y="0.17338348366032375"></rect><rect fill="#2563EB" height="0.7286390316761694" width="1" x="54" y="0.2713609683238306"></rect><rect fill="#2563EB" height="0.768906036804188" width="1" x="55" y="0.231093963195812"></rect><rect fill="#2563EB" height="0.7037729814222707" width="1" x="56" y="0.29622701857772926"></rect><rect fill="#2563EB" height="0.782679799348047" width="1" x="57" y="0.217320200651953"></rect><rect fill="#2563EB" height="0.7096363887074189" width="1" x="58" y="0.29036361129258115"></rect><rect fill="#2563EB" height="0.6942982734001187" width="1" x="59" y="0.30570172659988126"></rect><rect fill="#2563EB" height="0.6661067905510981" width="1" x="60" y="0.3338932094489019"></rect><rect fill="#2563EB" height="0.7177191353879685" width="1" x="61" y="0.2822808646120315"></rect><rect fill="#2563EB" height="0.80351087158246" width="1" x="62" y="0.19648912841753996"></rect><rect fill="#2563EB" height="0.7151699988670602" width="1" x="63" y="0.28483000113293977"></rect><rect fill="#2563EB" height="0.7216109872863192" width="1" x="64" y="0.2783890127136808"></rect><rect fill="#2563EB" height="0.723811780629743" width="1" x="65" y="0.27618821937025695"></rect><rect fill="#2563EB" height="0.7452525707270912" width="1" x="66" y="0.25474742927290883"></rect><rect fill="#2563EB" height="0.6458451722189239" width="1" x="67" y="0.3541548277810761"></rect><rect fill="#2563EB" height="0.770575680604324" width="1" x="68" y="0.22942431939567598"></rect><rect fill="#2563EB" height="0.6320938471429387" width="1" x="69" y="0.3679061528570613"></rect><rect fill="#2563EB" height="0.5375911262284239" width="1" x="70" y="0.46240887377157613"></rect><rect fill="#2563EB" height="0.4834590474373571" width="1" x="71" y="0.5165409525626429"></rect><rect fill="#2563EB" height="0.35514066243456793" width="1" x="72" y="0.6448593375654321"></rect><rect fill="#2563EB" height="0.256674652330841" width="1" x="73" y="0.743325347669159"></rect><rect fill="#2563EB" height="0.28130932150354937" width="1" x="74" y="0.7186906784964506"></rect><rect fill="#2563EB" height="0.17410077224296913" width="1" x="75" y="0.8258992277570308"></rect><rect fill="#2563EB" height="0.31771828403517594" width="1" x="76" y="0.682281715964824"></rect><rect fill="#2563EB" height="0.26512234236974486" width="1" x="77" y="0.7348776576302551"></rect><rect fill="#2563EB" height="0.15070124263270063" width="1" x="78" y="0.8492987573672994"></rect><rect fill="#2563EB" height="0.23929318261110374" width="1" x="79" y="0.7607068173888962"></rect><rect fill="#2563EB" height="0.3889087859042565" width="1" x="80" y="0.6110912140957435"></rect><rect fill="#2563EB" height="0.2142510020994747" width="1" x="81" y="0.7857489979005253"></rect><rect fill="#2563EB" height="0.1390918733218503" width="1" x="82" y="0.8609081266781498"></rect><rect fill="#2563EB" height="0.2507487603024038" width="1" x="83" y="0.7492512396975962"></rect><rect fill="#2563EB" height="0.5379633475733155" width="1" x="84" y="0.46203665242668446"></rect><rect fill="#2563EB" height="0.2868030453681216" width="1" x="85" y="0.7131969546318784"></rect><rect fill="#2563EB" height="0.13004280279104138" width="1" x="86" y="0.8699571972089586"></rect><rect fill="#2563EB" height="0.18002903120046793" width="1" x="87" y="0.819970968799532"></rect><rect fill="#2563EB" height="0.5089526715325513" width="1" x="88" y="0.4910473284674487"></rect><rect fill="#2563EB" height="0.3831793137235239" width="1" x="89" y="0.6168206862764761"></rect><rect fill="#2563EB" height="0.20977208454411467" width="1" x="90" y="0.7902279154558853"></rect><rect fill="#2563EB" height="0.21046383881997824" width="1" x="91" y="0.7895361611800218"></rect><rect fill="#2563EB" height="0.18465768644597919" width="1" x="92" y="0.8153423135540208"></rect><rect fill="#2563EB" height="0.16240646591241414" width="1" x="93" y="0.8375935340875859"></rect><rect fill="#2563EB" height="0.006841144130095492" width="1" x="94" y="0.9931588558699045"></rect><rect fill="#2563EB" height="0.000010848634332671012" width="1" x="95" y="0.9999891513656674"></rect><rect fill="#2563EB" height="0" width="1" x="96" y="1"></rect><rect fill="#2563EB" height="0" width="1" x="97" y="1"></rect><rect fill="#2563EB" height="0" width="1" x="98" y="1"></rect><rect fill="#2563EB" height="0" width="1" x="99" y="1"></rect></svg>