<svg xmlns="http://www.w3.org/2000/svg" preserveAspectRatio="none" viewBox="0 0 100 1"><rect fill="#2563EB" height="0.8327833479426142" width="1" x="0" y="0.16721665205738578"></rect><rect fill="#2563EB" height="0.8577950158434805" width="1" x="1" y="0.1422049841565195"></rect><rect fill="#2563EB" height="0.8114264827874109" width="1" x="2" y="0.18857351721258908"></rect><rect fill="#2563EB" height="0.8487576162940527" width="1" x="3" y="0.15124238370594734"></rect><rect fill="#2563EB" height="0.778964670538219" width="1" x="4" y="0.22103532946178095"></rect><rect fill="#2563EB" height="0.9610821873061177" width="1" x="5" y="0.03891781269388228"></rect><rect fill="#2563EB" height="0.7266279564080541" width="1" x="6" y="0.2733720435919459"></rect><rect fill="#2563EB" height="0.7704513511379011" width="1" x="7" y="0.22954864886209891"></rect><rect fill="#2563EB" height="0.8480744594108338" width="1" x="8" y="0.15192554058916619"></rect><rect fill="#2563EB" height="0.915420415922273" width="1" x="9" y="0.08457958407772703"></rect><rect fill="#2563EB" height="0.8743932895304334" width="1" x="10" y="0.12560671046956662"></rect><rect fill="#2563EB" height="0.7572403867054498" width="1" x="11" y="0.2427596132945502"></rect><rect fill="#2563EB" height="0.8636308822604266" width="1" x="12" y="0.1363691177395734"></rect><rect fill="#2563EB" height="0.8691022833191928" width="1" x="13" y="0.13089771668080719"></rect><rect fill="#2563EB" height="0.739171490993503" width="1" x="14" y="0.260828509006497"></rect><rect fill="#2563EB" height="0.7297433194609317" width="1" x="15" y="0.27025668053906826"></rect><rect fill="#2563EB" height="0.7907240463005439" width="1" x="16" y="0.20927595369945606"></rect><rect fill="#2563EB" height="0.7779524953257968" width="1" x="17" y="0.2220475046742032"></rect><rect fill="#2563EB" height="0.7768472720656453" width="1" x="18" y="0.2231527279343547"></rect><rect fill="#2563EB" height="0.825243383502545" width="1" x="19" y="0.174756616497455"></rect><rect fill="#2563EB" height="0.9066162650469949" width="1" x="20" y="0.09338373495300512"></rect><rect fill="#2563EB" height="0.8710350367568973" width="1" x="21" y="0.1289649632431027"></rect><rect fill="#2563EB" height="0.8583662937811336" width="1" x="22" y="0.1416337062188664"></rect><rect fill="#2563EB" height="0.8064019165919449" width="1" x="23" y="0.19359808340805507"></rect><rect fill="#2563EB" height="0.7499712045716439" width="1" x="24" y="0.2500287954283561"></rect><rect fill="#2563EB" height="0.7183442246523132" width="1" x="25" y="0.2816557753476868"></rect><rect fill="#2563EB" height="0.7530683032789995" width="1" x="26" y="0.24693169672100046"></rect><rect fill="#2563EB" height="0.7339660882178999" width="1" x="27" y="0.2660339117821001"></rect><rect fill="#2563EB" height="0.8324398159175215" width="1" x="28" y="0.16756018408247852"></rect><rect fill="#2563EB" height="0.9301007669624486" width="1" x="29" y="0.06989923303755141"></rect><rect fill="#2563EB" height="0.8204550918656138" width="1" x="30" y="0.17954490813438617"></rect><rect fill="#2563EB" height="0.862204542418753" width="1" x="31" y="0.137795457581247"></rect><rect fill="#2563EB" height="0.7978308023370332" width="1" x="32" y="0.20216919766296682"></rect><rect fill="#2563EB" height="0.9736950612262802" width="1" x="33" y="0.026304938773719755"></rect><rect fill="#2563EB" height="0.9064232101444013" width="1" x="34" y="0.0935767898555987"></rect><rect fill="#2563EB" height="0.8985689494120274" width="1" x="35" y="0.10143105058797264"></rect><rect fill="#2563EB" height="0.9228590054965277" width="1" x="36" y="0.07714099450347234"></rect><rect fill="#2563EB" height="0.8423285509659617" width="1" x="37" y="0.1576714490340383"></rect><rect fill="#2563EB" height="0.8167285594511633" width="1" x="38" y="0.1832714405488367"></rect><rect fill="#2563EB" height="0.8575313302542611" width="1" x="39" y="0.1424686697457389"></rect><rect fill="#2563EB" height="0.759612143061262" width="1" x="40" y="0.240387856938738"></rect><rect fill="#2563EB" height="0.7758492057751801" width="1" x="41" y="0.22415079422481987"></rect><rect fill="#2563EB" height="0.7666649020360434" width="1" x="42" y="0.23333509796395657"></rect><rect fill="#2563EB" height="0.8874059654490243" width="1" x="43" y="0.11259403455097572"></rect><rect fill="#2563EB" height="1" width="1" x="44" y="0"></rect><rect fill="#2563EB" height="0.7451425895615327" width="1" x="45" y="0.2548574104384673"></rect><rect fill="#2563EB" height="0.6823763533649944" width="1" x="46" y="0.31762364663500564"></rect><rect fill="#2563EB" height="0.8191611011920178" width="1" x="47" y="0.1808388988079822"></rect><rect fill="#2563EB" height="0.7734097062471403" width="1" x="48" y="0.22659029375285966"></rect><rect fill="#2563EB" height="0.9095289551807794" width="1" x="49" y="0.09047104481922064"></rect><rect fill="#2563EB" height="0.8721252140051959" width="1" x="50" y="0.12787478599480406"></rect><rect fill="#2563EB" height="0.7271284973932884" width="1" x="51" y="0.27287150260671156"></rect><rect fill="#2563EB" height="0.884788323517431" width="1" x="52" y="0.11521167648256903"></rect><rect fill="#2563EB" height="0.6893746950675262" width="1" x="53" y="0.31062530493247376"></rect><rect fill="#2563EB" height="0.7111448926159454" width="1" x="54" y="0.2888551073840546"></rect><rect fill="#2563EB" height="0.7477292438701638" width="1" x="55" y="0.2522707561298362"></rect><rect fill="#2563EB" height="0.8528806160301888" width="1" x="56" y="0.14711938396981117"></rect><rect fill="#2563EB" height="0.9600441451326609" width="1" x="57" y="0.0399558548673391"></rect><rect fill="#2563EB" height="0.752520483292333" width="1" x="58" y="0.247479516707667"></rect><rect fill="#2563EB" height="0.7390220699651364" width="1" x="59" y="0.2609779300348636"></rect><rect fill="#2563EB" height="0.8185371378367233" width="1" x="60" y="0.18146286216327667"></rect><rect fill="#2563EB" height="0.7740852464930482" width="1" x="61" y="0.22591475350695178"></rect><rect fill="#2563EB" height="0.8907635710844908" width="1" x="62" y="0.10923642891550922"></rect><rect fill="#2563EB" height="0.7734801824478482" width="1" x="63" y="0.22651981755215178"></rect><rect fill="#2563EB" height="0.7993081376353075" width="1" x="64" y="0.2006918623646925"></rect><rect fill="#2563EB" height="0.8078936292426523" width="1" x="65" y="0.1921063707573477"></rect><rect fill="#2563EB" height="0.6911734052848763" width="1" x="66" y="0.30882659471512375"></rect><rect fill="#2563EB" height="0.8783546852627905" width="1" x="67" y="0.12164531473720952"></rect><rect fill="#2563EB" height="0.8362708422444272" width="1" x="68" y="0.16372915775557284"></rect><rect fill="#2563EB" height="0.8074800887370648" width="1" x="69" y="0.19251991126293522"></rect><rect fill="#2563EB" height="0.8096023501149419" width="1" x="70" y="0.19039764988505814"></rect><rect fill="#2563EB" height="0.7513641364978031" width="1" x="71" y="0.2486358635021969"></rect><rect fill="#2563EB" height="0.7618930932755416" width="1" x="72" y="0.23810690672445844"></rect><rect fill="#2563EB" height="0.935002464484774" width="1" x="73" y="0.06499753551522602"></rect><rect fill="#2563EB" height="0.6968143484291847" width="1" x="74" y="0.30318565157081534"></rect><rect fill="#2563EB" height="0.8556996059907188" width="1" x="75" y="0.14430039400928119"></rect><rect fill="#2563EB" height="0.832830129779325" width="1" x="76" y="0.16716987022067498"></rect><rect fill="#2563EB" height="0.6841297396400103" width="1" x="77" y="0.31587026035998966"></rect><rect fill="#2563EB" height="0.7442057183876921" width="1" x="78" y="0.2557942816123079"></rect><rect fill="#2563EB" height="0.8426116784531481" width="1" x="79" y="0.1573883215468519"></rect><rect fill="#2563EB" height="0.7547032938792114" width="1" x="80" y="0.24529670612078858"></rect><rect fill="#2563EB" height="0.9925408612561925" width="1" x="81" y="0.007459138743807547"></rect><rect fill="#2563EB" height="0.8248738800329899" width="1" x="82" y="0.1751261199670101"></rect><rect fill="#2563EB" height="0.8594813496765719" width="1" x="83" y="0.14051865032342814"></rect><rect fill="#2563EB" height="0.8709288813877953" width="1" x="84" y="0.12907111861220466"></rect><rect fill="#2563EB" height="0.7440117512732481" width="1" x="85" y="0.25598824872675185"></rect><rect fill="#2563EB" height="0.7449226903367187" width="1" x="86" y="0.25507730966328135"></rect><rect fill="#2563EB" height="0.7963602358526924" width="1" x="87" y="0.20363976414730756"></rect><rect fill="#2563EB" height="0.9002169877826189" width="1" x="88" y="0.09978301221738106"></rect><rect fill="#2563EB" height="0.9711015938014451" width="1" x="89" y="0.028898406198554882"></rect><rect fill="#2563EB" height="0.8214226602701308" width="1" x="90" y="0.17857733972986922"></rect><rect fill="#2563EB" height="0.8826454419867551" width="1" x="91" y="0.1173545580132449"></rect><rect fill="#2563EB" height="0.8872413262269442" width="1" x="92" y="0.11275867377305582"></rect><rect fill="#2563EB" height="0.7394525102361076" width="1" x="93" y="0.2605474897638924"></rect><rect fill="#2563EB" height="0.8670266833856416" width="1" x="94" y="0.1329733166143584"></rect><rect fill="#2563EB" height="0.8485241339525117" width="1" x="95" y="0.1514758660474883"></rect><rect fill="#2563EB" height="0.9060461220649614" width="1" x="96" y="0.09395387793503862"></rect><rect fill="#2563EB" height="0.13495841608821216" width="1" x="97" y="0.8650415839117879"></rect><rect fill="#2563EB" height="0.014517097818426009" width="1" x="98" y="0.985482902181574"></rect><rect fill="#2563EB" height="0" width="1" x="99" y="1"></rect></svg>