<svg xmlns="http://www.w3.org/2000/svg" preserveAspectRatio="none" viewBox="0 0 100 1"><rect fill="#2563EB" height="0.00004871969290786348" width="1" x="0" y="0.9999512803070921"></rect><rect fill="#2563EB" height="0.6378514742106013" width="1" x="1" y="0.3621485257893987"></rect><rect fill="#2563EB" height="0.6711166364180795" width="1" x="2" y="0.3288833635819205"></rect><rect fill="#2563EB" height="0.7660435693175213" width="1" x="3" y="0.23395643068247873"></rect><rect fill="#2563EB" height="0.6749718670932967" width="1" x="4" y="0.3250281329067033"></rect><rect fill="#2563EB" height="0.7832818210175837" width="1" x="5" y="0.2167181789824163"></rect><rect fill="#2563EB" height="0.6890197317495088" width="1" x="6" y="0.3109802682504912"></rect><rect fill="#2563EB" height="0.6985340528624249" width="1" x="7" y="0.30146594713757513"></rect><rect fill="#2563EB" height="0.783787689507849" width="1" x="8" y="0.21621231049215095"></rect><rect fill="#2563EB" height="0.8016049413747337" width="1" x="9" y="0.1983950586252663"></rect><rect fill="#2563EB" height="0.876205263245626" width="1" x="10" y="0.12379473675437402"></rect><rect fill="#2563EB" height="0.7370013533847882" width="1" x="11" y="0.2629986466152118"></rect><rect fill="#2563EB" height="0.8760178516758643" width="1" x="12" y="0.12398214832413568"></rect><rect fill="#2563EB" height="0.7786559513511304" width="1" x="13" y="0.22134404864886958"></rect><rect fill="#2563EB" height="0.8525646541271048" width="1" x="14" y="0.1474353458728952"></rect><rect fill="#2563EB" height="0.8294347948095033" width="1" x="15" y="0.17056520519049667"></rect><rect fill="#2563EB" height="0.9355837667176395" width="1" x="16" y="0.06441623328236046"></rect><rect fill="#2563EB" height="0.9201133233823947" width="1" x="17" y="0.07988667661760529"></rect><rect fill="#2563EB" height="0.9095668691328402" width="1" x="18" y="0.09043313086715976"></rect><rect fill="#2563EB" height="0.9158065190102441" width="1" x="19" y="0.08419348098975588"></rect><rect fill="#2563EB" height="0.9141792390605561" width="1" x="20" y="0.08582076093944391"></rect><rect fill="#2563EB" height="0.9686767303331169" width="1" x="21" y="0.03132326966688315"></rect><rect fill="#2563EB" height="0.9408761310084097" width="1" x="22" y="0.05912386899159028"></rect><rect fill="#2563EB" height="0.8937740849960666" width="1" x="23" y="0.10622591500393341"></rect><rect fill="#2563EB" height="0.9615899315618304" width="1" x="24" y="0.03841006843816963"></rect><rect fill="#2563EB" height="0.9379139613151568" width="1" x="25" y="0.06208603868484319"></rect><rect fill="#2563EB" height="0.9707690694416715" width="1" x="26" y="0.029230930558328483"></rect><rect fill="#2563EB" height="0.9157333419216224" width="1" x="27" y="0.08426665807837763"></rect><rect fill="#2563EB" height="0.9531073505314235" width="1" x="28" y="0.04689264946857652"></rect><rect fill="#2563EB" height="0.9422502382406422" width="1" x="29" y="0.057749761759357754"></rect><rect fill="#2563EB" height="0.9229991282501855" width="1" x="30" y="0.07700087174981451"></rect><rect fill="#2563EB" height="0.931587287429312" width="1" x="31" y="0.06841271257068804"></rect><rect fill="#2563EB" height="0.924663903926633" width="1" x="32" y="0.075336096073367"></rect><rect fill="#2563EB" height="0.9949274381580056" width="1" x="33" y="0.00507256184199445"></rect><rect fill="#2563EB" height="0.9399682515282449" width="1" x="34" y="0.060031748471755075"></rect><rect fill="#2563EB" height="0.9817435083571436" width="1" x="35" y="0.018256491642856365"></rect><rect fill="#2563EB" height="1" width="1" x="36" y="0"></rect><rect fill="#2563EB" height="0.9422435716063136" width="1" x="37" y="0.05775642839368644"></rect><rect fill="#2563EB" height="0.9271683694264351" width="1" x="38" y="0.0728316305735649"></rect><rect fill="#2563EB" height="0.9253857407799552" width="1" x="39" y="0.07461425922004483"></rect><rect fill="#2563EB" height="0.9846994123449263" width="1" x="40" y="0.015300587655073694"></rect><rect fill="#2563EB" height="0.9381145605237979" width="1" x="41" y="0.061885439476202064"></rect><rect fill="#2563EB" height="0.9704857435816384" width="1" x="42" y="0.029514256418361584"></rect><rect fill="#2563EB" height="0.9266808167539756" width="1" x="43" y="0.07331918324602438"></rect><rect fill="#2563EB" height="0.9657259557280775" width="1" x="44" y="0.03427404427192249"></rect><rect fill="#2563EB" height="0.933331949715734" width="1" x="45" y="0.06666805028426603"></rect><rect fill="#2563EB" height="0.9140490085032178" width="1" x="46" y="0.0859509914967822"></rect><rect fill="#2563EB" height="0.9978969410999562" width="1" x="47" y="0.0021030589000438082"></rect><rect fill="#2563EB" height="0.9502273002808632" width="1" x="48" y="0.04977269971913678"></rect><rect fill="#2563EB" height="0.9616893692696684" width="1" x="49" y="0.038310630730331585"></rect><rect fill="#2563EB" height="0.9386877952439179" width="1" x="50" y="0.06131220475608212"></rect><rect fill="#2563EB" height="0.4801361087571746" width="1" x="51" y="0.5198638912428254"></rect><rect fill="#2563EB" height="0.4000509091703498" width="1" x="52" y="0.5999490908296502"></rect><rect fill="#2563EB" height="0.4244436162977796" width="1" x="53" y="0.5755563837022204"></rect><rect fill="#2563EB" height="0.41525804151431606" width="1" x="54" y="0.5847419584856839"></rect><rect fill="#2563EB" height="0.4200715741744365" width="1" x="55" y="0.5799284258255635"></rect><rect fill="#2563EB" height="0.43658667376212523" width="1" x="56" y="0.5634133262378748"></rect><rect fill="#2563EB" height="0.39695237201493777" width="1" x="57" y="0.6030476279850623"></rect><rect fill="#2563EB" height="0.9365773615612146" width="1" x="58" y="0.06342263843878537"></rect><rect fill="#2563EB" height="0.8873977481559606" width="1" x="59" y="0.11260225184403938"></rect><rect fill="#2563EB" height="0.9157238384141922" width="1" x="60" y="0.08427616158580775"></rect><rect fill="#2563EB" height="0.8685986137953904" width="1" x="61" y="0.13140138620460962"></rect><rect fill="#2563EB" height="0.865783726912732" width="1" x="62" y="0.13421627308726802"></rect><rect fill="#2563EB" height="0.9516519131322834" width="1" x="63" y="0.04834808686771663"></rect><rect fill="#2563EB" height="0.9970985908676061" width="1" x="64" y="0.002901409132393895"></rect><rect fill="#2563EB" height="0.9659271218066748" width="1" x="65" y="0.03407287819332516"></rect><rect fill="#2563EB" height="0.9076432626456542" width="1" x="66" y="0.0923567373543458"></rect><rect fill="#2563EB" height="0.9034849643044198" width="1" x="67" y="0.09651503569558018"></rect><rect fill="#2563EB" height="0.9422124060286908" width="1" x="68" y="0.05778759397130917"></rect><rect fill="#2563EB" height="0.8680341104837567" width="1" x="69" y="0.13196588951624333"></rect><rect fill="#2563EB" height="0.9077830045235665" width="1" x="70" y="0.09221699547643347"></rect><rect fill="#2563EB" height="0.9101680989437415" width="1" x="71" y="0.08983190105625849"></rect><rect fill="#2563EB" height="0.9064228025372454" width="1" x="72" y="0.09357719746275461"></rect><rect fill="#2563EB" height="0.8503229843479373" width="1" x="73" y="0.1496770156520627"></rect><rect fill="#2563EB" height="0.8755737155208431" width="1" x="74" y="0.12442628447915693"></rect><rect fill="#2563EB" height="0.9191839488736285" width="1" x="75" y="0.08081605112637147"></rect><rect fill="#2563EB" height="0.8698826144084206" width="1" x="76" y="0.13011738559157937"></rect><rect fill="#2563EB" height="0.9314318217511682" width="1" x="77" y="0.06856817824883177"></rect><rect fill="#2563EB" height="0.885277518447934" width="1" x="78" y="0.11472248155206599"></rect><rect fill="#2563EB" height="0.9039670266068542" width="1" x="79" y="0.09603297339314576"></rect><rect fill="#2563EB" height="0.9016040317472304" width="1" x="80" y="0.09839596825276964"></rect><rect fill="#2563EB" height="0.8992235300282246" width="1" x="81" y="0.10077646997177536"></rect><rect fill="#2563EB" height="0.9090651670421898" width="1" x="82" y="0.09093483295781024"></rect><rect fill="#2563EB" height="0.9091356985550965" width="1" x="83" y="0.09086430144490354"></rect><rect fill="#2563EB" height="0.9464191228398564" width="1" x="84" y="0.05358087716014359"></rect><rect fill="#2563EB" height="0.9529131983374911" width="1" x="85" y="0.04708680166250889"></rect><rect fill="#2563EB" height="0.929285744883031" width="1" x="86" y="0.07071425511696905"></rect><rect fill="#2563EB" height="0.9022916877084631" width="1" x="87" y="0.09770831229153687"></rect><rect fill="#2563EB" height="0.9338441390844912" width="1" x="88" y="0.06615586091550885"></rect><rect fill="#2563EB" height="0.9282306918297807" width="1" x="89" y="0.07176930817021931"></rect><rect fill="#2563EB" height="0.9384764531342674" width="1" x="90" y="0.06152354686573258"></rect><rect fill="#2563EB" height="0.9545952501317337" width="1" x="91" y="0.04540474986826626"></rect><rect fill="#2563EB" height="0.9584481601165591" width="1" x="92" y="0.04155183988344091"></rect><rect fill="#2563EB" height="0.9197620202859743" width="1" x="93" y="0.08023797971402569"></rect><rect fill="#2563EB" height="0.9261839222324308" width="1" x="94" y="0.07381607776756915"></rect><rect fill="#2563EB" height="0.9456566262388711" width="1" x="95" y="0.054343373761128855"></rect><rect fill="#2563EB" height="0.9625672478556093" width="1" x="96" y="0.03743275214439068"></rect><rect fill="#2563EB" height="0.5910003419309791" width="1" x="97" y="0.40899965806902094"></rect><rect fill="#2563EB" height="0.219476161859247" width="1" x="98" y="0.780523838140753"></rect><rect fill="#2563EB" height="0.029738766462079683" width="1" x="99" y="0.9702612335379203"></rect></svg>